<?xml version="1.0" encoding="UTF-8" standalone="no"?><svg width="136" height="73" viewBox="0 0 136 73" fill="none" xmlns="http://www.w3.org/2000/svg">
<path d="M5 6C5 2.68629 7.68629 0 11 0H125C128.314 0 131 2.68629 131 6V28C131 31.3137 128.314 34 125 34H11C7.68629 34 5 31.3137 5 28V6Z" fill="#171819"/>
<path d="M19.84 17.236V23H17.134V7.6C17.8967 7.6 18.7253 7.59267 19.62 7.578C20.5147 7.56333 21.248 7.556 21.82 7.556C25.5453 7.556 27.408 9.14 27.408 12.308C27.408 13.4813 27.1073 14.4493 26.506 15.212C25.9047 15.9453 25.2153 16.444 24.438 16.708L29.256 23H25.978L21.732 17.236H19.84ZM21.688 10.086C21.6147 10.086 21.4973 10.0933 21.336 10.108C21.1747 10.108 20.9473 10.1153 20.654 10.13C20.3607 10.13 20.0893 10.13 19.84 10.13V14.706H21.6C22.4653 14.706 23.1693 14.4933 23.712 14.068C24.2693 13.6427 24.548 13.0633 24.548 12.33C24.548 10.834 23.5947 10.086 21.688 10.086ZM37.7521 20.228L38.4781 22.01C37.4955 22.8313 36.2341 23.242 34.6941 23.242C33.1101 23.242 31.8195 22.7653 30.8221 21.812C29.8541 20.8733 29.3701 19.6193 29.3701 18.05C29.3701 16.5833 29.8468 15.3513 30.8001 14.354C31.7535 13.3567 33.0221 12.858 34.6061 12.858C35.9115 12.858 37.0188 13.2907 37.9281 14.156C38.8375 15.0213 39.2921 16.1213 39.2921 17.456C39.2921 18.0427 39.2408 18.4973 39.1381 18.82H31.9881C32.0908 19.5387 32.4061 20.1033 32.9341 20.514C33.4768 20.9247 34.1515 21.13 34.9581 21.13C36.0581 21.13 36.9895 20.8293 37.7521 20.228ZM34.4961 14.97C33.0588 14.97 32.1935 15.6887 31.9001 17.126H36.7621C36.7768 16.4953 36.5715 15.982 36.1461 15.586C35.7355 15.1753 35.1855 14.97 34.4961 14.97ZM42.0999 15.652L41.4619 13.804C42.5325 13.1733 43.6985 12.858 44.9599 12.858C46.3385 12.858 47.3432 13.1953 47.9739 13.87C48.6045 14.5447 48.9199 15.5787 48.9199 16.972V23H46.7199V21.856C46.1332 22.7067 45.1579 23.132 43.7939 23.132C42.8552 23.132 42.0999 22.8607 41.5279 22.318C40.9705 21.7607 40.6919 21.02 40.6919 20.096C40.6919 19.0693 41.0219 18.2773 41.6819 17.72C42.3419 17.1627 43.2145 16.884 44.2999 16.884C45.1945 16.884 45.9425 17.0967 46.5439 17.522C46.5732 16.642 46.4412 15.9967 46.1479 15.586C45.8692 15.1753 45.3852 14.97 44.6959 14.97C43.9332 14.97 43.0679 15.1973 42.0999 15.652ZM44.6299 20.998C45.4805 20.998 46.1185 20.6973 46.5439 20.096V19.084C46.1332 18.7613 45.5539 18.6 44.8059 18.6C44.3365 18.6 43.9552 18.71 43.6619 18.93C43.3685 19.15 43.2219 19.4507 43.2219 19.832C43.2219 20.184 43.3539 20.47 43.6179 20.69C43.8819 20.8953 44.2192 20.998 44.6299 20.998ZM59.0155 19.678L60.2035 21.526C59.3675 22.67 58.0548 23.242 56.2655 23.242C54.6668 23.242 53.3688 22.7653 52.3715 21.812C51.3888 20.8733 50.8975 19.6193 50.8975 18.05C50.8975 16.5687 51.3815 15.3367 52.3495 14.354C53.3175 13.3567 54.5421 12.858 56.0235 12.858C57.7835 12.858 59.1108 13.3053 60.0055 14.2L58.8175 16.202C58.1428 15.5567 57.3215 15.234 56.3535 15.234C55.6201 15.234 54.9748 15.498 54.4175 16.026C53.8748 16.5247 53.6035 17.1993 53.6035 18.05C53.6035 18.9007 53.8821 19.59 54.4395 20.118C55.0261 20.6313 55.7008 20.888 56.4635 20.888C57.4461 20.888 58.2968 20.4847 59.0155 19.678ZM64.7642 23H62.2342V7.6H64.7642V14.002C65.4975 13.2833 66.4435 12.924 67.6022 12.924C70.3155 12.924 71.6722 14.3687 71.6722 17.258V23H69.1422V17.588C69.1422 16.8547 68.9515 16.29 68.5702 15.894C68.1888 15.498 67.6462 15.3 66.9422 15.3C66.0915 15.3 65.3655 15.6007 64.7642 16.202V23ZM85.572 13.1H88.454L84.56 23C83.856 24.716 83.2254 25.8747 82.668 26.476C82.1254 27.092 81.48 27.4 80.732 27.4C80.028 27.4 79.3167 27.1433 78.598 26.63L79.412 24.716C79.7934 24.9507 80.138 25.068 80.446 25.068C81.0474 25.068 81.5534 24.5547 81.964 23.528L82.184 23L77.608 13.1H80.644L82.954 18.512C82.9834 18.5853 83.1447 19.062 83.438 19.942C83.526 19.3993 83.6434 18.9153 83.79 18.49L85.572 13.1ZM90.4418 21.79C89.4591 20.8073 88.9678 19.5607 88.9678 18.05C88.9678 16.5393 89.4591 15.3 90.4418 14.332C91.4244 13.3493 92.7298 12.858 94.3578 12.858C95.9711 12.858 97.2691 13.3493 98.2518 14.332C99.2491 15.3 99.7478 16.5393 99.7478 18.05C99.7478 19.546 99.2491 20.7927 98.2518 21.79C97.2544 22.758 95.9564 23.242 94.3578 23.242C92.7298 23.242 91.4244 22.758 90.4418 21.79ZM92.4438 16.026C91.9304 16.554 91.6738 17.2287 91.6738 18.05C91.6738 18.8713 91.9231 19.5533 92.4218 20.096C92.9351 20.624 93.5804 20.888 94.3578 20.888C95.1498 20.888 95.7951 20.624 96.2938 20.096C96.8071 19.568 97.0638 18.886 97.0638 18.05C97.0638 17.2287 96.8071 16.554 96.2938 16.026C95.7804 15.498 95.1351 15.234 94.3578 15.234C93.5951 15.234 92.9571 15.498 92.4438 16.026ZM108.361 13.1H110.891V23H108.361V21.79C107.569 22.758 106.513 23.242 105.193 23.242C104.137 23.242 103.294 22.89 102.663 22.186C102.033 21.482 101.717 20.47 101.717 19.15V13.1H104.247V18.622C104.247 20.1327 104.878 20.888 106.139 20.888C107.005 20.888 107.745 20.4847 108.361 19.678V13.1ZM116.241 23H113.711V13.1H116.241V14.068C116.783 13.3053 117.539 12.924 118.507 12.924C119.196 12.924 119.709 13.0487 120.047 13.298L119.145 15.674C118.719 15.4247 118.294 15.3 117.869 15.3C117.135 15.3 116.593 15.652 116.241 16.356V23Z" fill="#FFDD63"/>
<path d="M0 45C0 41.6863 2.68629 39 6 39H130C133.314 39 136 41.6863 136 45V67C136 70.3137 133.314 73 130 73H6C2.68629 73 0 70.3137 0 67V45Z" fill="#171819"/>
<path d="M14.2228 62H11.6928V50.494C11.6928 49.1593 12.0008 48.14 12.6168 47.436C13.2328 46.7173 14.0981 46.358 15.2128 46.358C16.4595 46.358 17.3835 46.666 17.9848 47.282L17.1268 49.218C16.8041 48.8953 16.3201 48.734 15.6748 48.734C14.7068 48.734 14.2228 49.3867 14.2228 50.692V52.1H16.9068V54.476H14.2228V62ZM21.6411 62H19.1111V52.1H21.6411V62ZM18.8471 48.536C18.8471 48.096 18.9938 47.744 19.2871 47.48C19.5951 47.2013 19.9764 47.062 20.4311 47.062C20.8271 47.062 21.1644 47.2013 21.4431 47.48C21.7364 47.7587 21.8831 48.1107 21.8831 48.536C21.8831 49.0053 21.7364 49.3867 21.4431 49.68C21.1644 49.9733 20.8271 50.12 20.4311 50.12C19.9764 50.12 19.5951 49.9733 19.2871 49.68C18.9938 49.3867 18.8471 49.0053 18.8471 48.536ZM24.6187 58.238V49.35H27.1487V52.1H30.3387V54.476H27.1487V58.084C27.1487 59.272 27.5447 59.866 28.3367 59.866C28.8353 59.866 29.3413 59.6753 29.8547 59.294L30.6247 61.252C29.818 61.8973 28.8427 62.22 27.6987 62.22C26.628 62.22 25.8433 61.8973 25.3447 61.252C24.8607 60.592 24.6187 59.5873 24.6187 58.238ZM35.2964 62H32.7664V52.1H35.2964V53.09C36.0297 52.3127 36.9757 51.924 38.1344 51.924C40.8477 51.924 42.2044 53.3467 42.2044 56.192V62H39.6744V56.632C39.6744 55.0773 38.9337 54.3 37.4524 54.3C36.6457 54.3 35.9271 54.6153 35.2964 55.246V62ZM52.5422 59.228L53.2682 61.01C52.2855 61.8313 51.0242 62.242 49.4842 62.242C47.9002 62.242 46.6095 61.7653 45.6122 60.812C44.6442 59.8733 44.1602 58.6193 44.1602 57.05C44.1602 55.5833 44.6368 54.3513 45.5902 53.354C46.5435 52.3567 47.8122 51.858 49.3962 51.858C50.7015 51.858 51.8088 52.2907 52.7182 53.156C53.6275 54.0213 54.0822 55.1213 54.0822 56.456C54.0822 57.0427 54.0308 57.4973 53.9282 57.82H46.7782C46.8808 58.5387 47.1962 59.1033 47.7242 59.514C48.2668 59.9247 48.9415 60.13 49.7482 60.13C50.8482 60.13 51.7795 59.8293 52.5422 59.228ZM49.2862 53.97C47.8488 53.97 46.9835 54.6887 46.6902 56.126H51.5522C51.5668 55.4953 51.3615 54.982 50.9362 54.586C50.5255 54.1753 49.9755 53.97 49.2862 53.97ZM55.7899 54.872C55.7899 53.948 56.1272 53.2147 56.8019 52.672C57.4766 52.1293 58.3492 51.858 59.4199 51.858C61.0332 51.858 62.2872 52.276 63.1819 53.112L62.2359 54.916C61.4292 54.2853 60.5346 53.97 59.5519 53.97C59.1999 53.97 58.9066 54.058 58.6719 54.234C58.4372 54.3953 58.3199 54.5933 58.3199 54.828C58.3199 55.312 58.9432 55.7153 60.1899 56.038C60.6446 56.1407 61.0479 56.258 61.3999 56.39C61.7519 56.5073 62.1112 56.6833 62.4779 56.918C62.8592 57.138 63.1526 57.4313 63.3579 57.798C63.5632 58.1647 63.6659 58.59 63.6659 59.074C63.6659 60.042 63.2992 60.812 62.5659 61.384C61.8472 61.956 60.8792 62.242 59.6619 62.242C58.7966 62.242 57.9532 62.0587 57.1319 61.692C56.2959 61.3107 55.7606 60.9293 55.5259 60.548L56.7579 58.898C57.0366 59.2353 57.4986 59.5213 58.1439 59.756C58.8039 60.0053 59.3686 60.13 59.8379 60.13C60.4099 60.1887 60.8132 60.0053 61.0479 59.58C61.2826 59.14 61.1286 58.7807 60.5859 58.502C60.3659 58.3847 60.0212 58.26 59.5519 58.128C59.0972 57.996 58.6719 57.864 58.2759 57.732C57.8946 57.5853 57.4986 57.402 57.0879 57.182C56.6919 56.962 56.3766 56.6613 56.1419 56.28C55.9072 55.884 55.7899 55.4147 55.7899 54.872ZM65.5653 54.872C65.5653 53.948 65.9026 53.2147 66.5773 52.672C67.252 52.1293 68.1246 51.858 69.1953 51.858C70.8086 51.858 72.0626 52.276 72.9573 53.112L72.0113 54.916C71.2046 54.2853 70.31 53.97 69.3273 53.97C68.9753 53.97 68.682 54.058 68.4473 54.234C68.2126 54.3953 68.0953 54.5933 68.0953 54.828C68.0953 55.312 68.7186 55.7153 69.9653 56.038C70.42 56.1407 70.8233 56.258 71.1753 56.39C71.5273 56.5073 71.8866 56.6833 72.2533 56.918C72.6346 57.138 72.928 57.4313 73.1333 57.798C73.3386 58.1647 73.4413 58.59 73.4413 59.074C73.4413 60.042 73.0746 60.812 72.3413 61.384C71.6226 61.956 70.6546 62.242 69.4373 62.242C68.572 62.242 67.7286 62.0587 66.9073 61.692C66.0713 61.3107 65.536 60.9293 65.3013 60.548L66.5333 58.898C66.812 59.2353 67.274 59.5213 67.9193 59.756C68.5793 60.0053 69.144 60.13 69.6133 60.13C70.1853 60.1887 70.5886 60.0053 70.8233 59.58C71.058 59.14 70.904 58.7807 70.3613 58.502C70.1413 58.3847 69.7966 58.26 69.3273 58.128C68.8726 57.996 68.4473 57.864 68.0513 57.732C67.67 57.5853 67.274 57.402 66.8633 57.182C66.4673 56.962 66.152 56.6613 65.9173 56.28C65.6826 55.884 65.5653 55.4147 65.5653 54.872ZM79.0348 63.342C79.0348 62.5647 79.3208 61.9193 79.8928 61.406C80.4648 60.878 81.2495 60.504 82.2468 60.284C82.1295 60.0787 82.0708 59.8513 82.0708 59.602C82.0708 59.3233 82.1441 59.0887 82.2908 58.898C81.5575 58.6047 80.9781 58.1647 80.5528 57.578C80.1421 56.9767 79.9368 56.3093 79.9368 55.576C79.9368 54.564 80.3255 53.6913 81.1028 52.958C81.8801 52.2247 82.8995 51.858 84.1608 51.858C85.1141 51.858 85.9575 52.0927 86.6908 52.562L89.6828 51.902L89.7708 53.926L88.1208 54.3C88.2821 54.74 88.3628 55.1653 88.3628 55.576C88.3628 56.5733 87.9741 57.4387 87.1968 58.172C86.4341 58.876 85.4221 59.228 84.1608 59.228H83.9848C83.9555 59.3453 83.9408 59.47 83.9408 59.602C83.9408 59.7927 83.9848 59.9613 84.0728 60.108H84.1828C85.7228 60.108 86.9621 60.3793 87.9008 60.922C88.8541 61.4793 89.3308 62.286 89.3308 63.342C89.3308 64.398 88.8541 65.2047 87.9008 65.762C86.9621 66.3047 85.7228 66.576 84.1828 66.576C82.5988 66.576 81.3448 66.2973 80.4208 65.74C79.4968 65.1973 79.0348 64.398 79.0348 63.342ZM81.3888 63.342C81.3888 63.7233 81.6308 64.0167 82.1148 64.222C82.6135 64.442 83.3028 64.552 84.1828 64.552C86.0308 64.552 86.9548 64.1487 86.9548 63.342C86.9548 62.9753 86.7128 62.682 86.2288 62.462C85.7448 62.242 85.0628 62.132 84.1828 62.132C83.3175 62.132 82.6355 62.242 82.1368 62.462C81.6381 62.682 81.3888 62.9753 81.3888 63.342ZM84.1608 57.182C84.7035 57.182 85.1435 57.0353 85.4808 56.742C85.8328 56.4487 86.0088 56.06 86.0088 55.576C86.0088 55.0773 85.8401 54.674 85.5028 54.366C85.1655 54.058 84.7181 53.904 84.1608 53.904C83.6035 53.904 83.1561 54.0653 82.8188 54.388C82.4815 54.696 82.3128 55.092 82.3128 55.576C82.3128 56.0453 82.4815 56.434 82.8188 56.742C83.1561 57.0353 83.6035 57.182 84.1608 57.182ZM92.1693 60.79C91.1867 59.8073 90.6953 58.5607 90.6953 57.05C90.6953 55.5393 91.1867 54.3 92.1693 53.332C93.152 52.3493 94.4573 51.858 96.0853 51.858C97.6987 51.858 98.9967 52.3493 99.9793 53.332C100.977 54.3 101.475 55.5393 101.475 57.05C101.475 58.546 100.977 59.7927 99.9793 60.79C98.982 61.758 97.684 62.242 96.0853 62.242C94.4573 62.242 93.152 61.758 92.1693 60.79ZM94.1713 55.026C93.658 55.554 93.4013 56.2287 93.4013 57.05C93.4013 57.8713 93.6507 58.5533 94.1493 59.096C94.6627 59.624 95.308 59.888 96.0853 59.888C96.8773 59.888 97.5227 59.624 98.0213 59.096C98.5347 58.568 98.7913 57.886 98.7913 57.05C98.7913 56.2287 98.5347 55.554 98.0213 55.026C97.508 54.498 96.8627 54.234 96.0853 54.234C95.3227 54.234 94.6847 54.498 94.1713 55.026ZM104.435 54.652L103.797 52.804C104.868 52.1733 106.034 51.858 107.295 51.858C108.674 51.858 109.678 52.1953 110.309 52.87C110.94 53.5447 111.255 54.5787 111.255 55.972V62H109.055V60.856C108.468 61.7067 107.493 62.132 106.129 62.132C105.19 62.132 104.435 61.8607 103.863 61.318C103.306 60.7607 103.027 60.02 103.027 59.096C103.027 58.0693 103.357 57.2773 104.017 56.72C104.677 56.1627 105.55 55.884 106.635 55.884C107.53 55.884 108.278 56.0967 108.879 56.522C108.908 55.642 108.776 54.9967 108.483 54.586C108.204 54.1753 107.72 53.97 107.031 53.97C106.268 53.97 105.403 54.1973 104.435 54.652ZM106.965 59.998C107.816 59.998 108.454 59.6973 108.879 59.096V58.084C108.468 57.7613 107.889 57.6 107.141 57.6C106.672 57.6 106.29 57.71 105.997 57.93C105.704 58.15 105.557 58.4507 105.557 58.832C105.557 59.184 105.689 59.47 105.953 59.69C106.217 59.8953 106.554 59.998 106.965 59.998ZM113.848 59.272V46.6H116.378V58.238C116.378 59.3087 116.664 59.844 117.236 59.844C117.559 59.844 117.904 59.712 118.27 59.448L118.798 61.384C118.109 61.9413 117.236 62.22 116.18 62.22C114.626 62.22 113.848 61.2373 113.848 59.272ZM123.767 56.676H121.083V46.6H123.767V56.676ZM120.731 60.35C120.731 59.9247 120.892 59.5507 121.215 59.228C121.552 58.8907 121.977 58.722 122.491 58.722C122.931 58.722 123.305 58.8907 123.613 59.228C123.935 59.5507 124.097 59.9247 124.097 60.35C124.097 60.834 123.935 61.252 123.613 61.604C123.305 61.9413 122.931 62.11 122.491 62.11C121.977 62.11 121.552 61.9413 121.215 61.604C120.892 61.252 120.731 60.834 120.731 60.35Z" fill="#FFDD63"/>
</svg>
