<?xml version="1.0" encoding="UTF-8" standalone="no"?><svg width="500" height="62" viewBox="0 0 500 62" fill="none" xmlns="http://www.w3.org/2000/svg">
<path d="M0 16C0 7.16344 7.16344 0 16 0H484C492.837 0 500 7.16344 500 16V46C500 54.8366 492.837 62 484 62H16C7.16345 62 0 54.8366 0 46V16Z" fill="#F7F7F7"/>
<path opacity="0.5" d="M29.018 24.4H30.692L26.174 31.6V37H24.644V31.6L20.18 24.4H21.944L25.472 30.16L29.018 24.4ZM30.7682 35.992C29.9762 35.176 29.5802 34.162 29.5802 32.95C29.5802 31.726 29.9762 30.718 30.7682 29.926C31.5722 29.122 32.6162 28.72 33.9002 28.72C35.1842 28.72 36.2222 29.122 37.0142 29.926C37.8182 30.718 38.2202 31.726 38.2202 32.95C38.2202 34.174 37.8182 35.188 37.0142 35.992C36.2222 36.784 35.1842 37.18 33.9002 37.18C32.6282 37.18 31.5842 36.784 30.7682 35.992ZM31.9022 30.88C31.3742 31.408 31.1102 32.098 31.1102 32.95C31.1102 33.802 31.3682 34.492 31.8842 35.02C32.4122 35.56 33.0842 35.83 33.9002 35.83C34.7162 35.83 35.3822 35.566 35.8982 35.038C36.4262 34.498 36.6902 33.802 36.6902 32.95C36.6902 32.122 36.4262 31.432 35.8982 30.88C35.3822 30.34 34.7162 30.07 33.9002 30.07C33.0842 30.07 32.4182 30.34 31.9022 30.88ZM45.968 28.9H47.408V37H45.968V35.848C45.212 36.736 44.258 37.18 43.106 37.18C42.158 37.18 41.42 36.892 40.892 36.316C40.376 35.728 40.118 34.864 40.118 33.724V28.9H41.558V33.4C41.558 35.02 42.254 35.83 43.646 35.83C44.078 35.83 44.504 35.722 44.924 35.506C45.356 35.278 45.704 34.984 45.968 34.624V28.9ZM51.4587 37H50.0187V28.9H51.4587V29.854C51.9387 29.122 52.6167 28.756 53.4927 28.756C54.0567 28.756 54.4767 28.858 54.7527 29.062L54.2487 30.412C53.9007 30.208 53.5347 30.106 53.1507 30.106C52.4187 30.106 51.8547 30.49 51.4587 31.258V37ZM68.0628 37H60.7728V24.4H67.8828V25.84H62.3028V29.908H67.3428V31.348H62.3028V35.56H68.0628V37ZM82.5563 31.69V37H81.1163V32.086C81.1163 30.766 80.5343 30.106 79.3703 30.106C78.9023 30.106 78.4763 30.214 78.0923 30.43C77.7203 30.634 77.4383 30.916 77.2463 31.276C77.2583 31.336 77.2643 31.528 77.2643 31.852V37H75.8243V31.78C75.8243 31.264 75.6683 30.856 75.3563 30.556C75.0563 30.256 74.6363 30.106 74.0963 30.106C73.1963 30.106 72.4883 30.472 71.9723 31.204V37H70.5323V28.9H71.9723V29.926C72.2723 29.578 72.6623 29.296 73.1423 29.08C73.6343 28.864 74.1383 28.756 74.6543 28.756C75.2663 28.756 75.7883 28.882 76.2203 29.134C76.6523 29.386 76.9463 29.728 77.1023 30.16C77.4023 29.728 77.8043 29.386 78.3083 29.134C78.8123 28.882 79.3583 28.756 79.9463 28.756C81.6863 28.756 82.5563 29.734 82.5563 31.69ZM85.4135 30.61L85.0355 29.458C85.8395 28.966 86.7395 28.72 87.7355 28.72C88.8275 28.72 89.6195 28.99 90.1115 29.53C90.6035 30.07 90.8495 30.904 90.8495 32.032V37H89.4815V35.956C88.8455 36.736 87.9815 37.126 86.8895 37.126C86.1455 37.126 85.5455 36.904 85.0895 36.46C84.6335 36.004 84.4055 35.392 84.4055 34.624C84.4055 33.832 84.6875 33.208 85.2515 32.752C85.8155 32.284 86.5535 32.05 87.4655 32.05C88.3175 32.05 88.9895 32.224 89.4815 32.572C89.4815 31.66 89.3555 31.006 89.1035 30.61C88.8515 30.214 88.3655 30.016 87.6455 30.016C86.9135 30.016 86.1695 30.214 85.4135 30.61ZM87.3935 35.83C88.1975 35.83 88.8935 35.482 89.4815 34.786V33.76C88.9775 33.4 88.3715 33.22 87.6635 33.22C87.1715 33.22 86.7575 33.34 86.4215 33.58C86.0975 33.808 85.9355 34.132 85.9355 34.552C85.9355 34.948 86.0615 35.26 86.3135 35.488C86.5775 35.716 86.9375 35.83 87.3935 35.83ZM95.0968 37H93.6568V28.9H95.0968V37ZM93.4768 25.858C93.4768 25.606 93.5668 25.402 93.7468 25.246C93.9268 25.078 94.1488 24.994 94.4128 24.994C94.6648 24.994 94.8748 25.078 95.0428 25.246C95.2108 25.402 95.2948 25.606 95.2948 25.858C95.2948 26.134 95.2108 26.362 95.0428 26.542C94.8748 26.71 94.6648 26.794 94.4128 26.794C94.1488 26.794 93.9268 26.71 93.7468 26.542C93.5668 26.362 93.4768 26.134 93.4768 25.858ZM98.0773 34.84V24.4H99.5173V34.192C99.5173 35.26 99.8353 35.794 100.471 35.794C100.783 35.794 101.125 35.674 101.497 35.434L101.821 36.532C101.305 36.94 100.669 37.144 99.9133 37.144C98.6893 37.144 98.0773 36.376 98.0773 34.84Z" fill="#050505"/>
<path d="M257 18C257 10.268 263.268 4 271 4H482C489.732 4 496 10.268 496 18V44C496 51.732 489.732 58 482 58H271C263.268 58 257 51.732 257 44V18Z" fill="#FF284C"/>
<path d="M347.494 24.3583L348.34 26.0143C347.944 26.4343 347.374 26.7763 346.63 27.0403C345.898 27.3043 345.124 27.4363 344.308 27.4363C342.388 27.4363 340.822 26.8423 339.61 25.6543C338.41 24.4663 337.81 22.8943 337.81 20.9383C337.81 19.0663 338.38 17.5123 339.52 16.2763C340.648 15.0523 342.226 14.4403 344.254 14.4403C345.862 14.4403 347.14 14.8663 348.088 15.7183L347.098 17.3563C346.246 16.7923 345.298 16.5103 344.254 16.5103C343.054 16.5103 342.07 16.9123 341.302 17.7163C340.534 18.5203 340.15 19.5943 340.15 20.9383C340.15 22.2583 340.552 23.3263 341.356 24.1423C342.172 24.9583 343.222 25.3663 344.506 25.3663C345.61 25.3663 346.606 25.0303 347.494 24.3583ZM349.947 25.0063V14.6383H352.017V24.1603C352.017 25.0363 352.251 25.4743 352.719 25.4743C352.983 25.4743 353.265 25.3663 353.565 25.1503L353.997 26.7343C353.433 27.1903 352.719 27.4183 351.855 27.4183C350.583 27.4183 349.947 26.6143 349.947 25.0063ZM357.702 27.2383H355.632V19.1383H357.702V27.2383ZM355.416 16.2223C355.416 15.8623 355.536 15.5743 355.776 15.3583C356.028 15.1303 356.34 15.0163 356.712 15.0163C357.036 15.0163 357.312 15.1303 357.54 15.3583C357.78 15.5863 357.9 15.8743 357.9 16.2223C357.9 16.6063 357.78 16.9183 357.54 17.1583C357.312 17.3983 357.036 17.5183 356.712 17.5183C356.34 17.5183 356.028 17.3983 355.776 17.1583C355.536 16.9183 355.416 16.6063 355.416 16.2223ZM366.456 24.5203L367.428 26.0323C366.744 26.9683 365.67 27.4363 364.206 27.4363C362.898 27.4363 361.836 27.0463 361.02 26.2663C360.216 25.4983 359.814 24.4723 359.814 23.1883C359.814 21.9763 360.21 20.9683 361.002 20.1643C361.794 19.3483 362.796 18.9403 364.008 18.9403C365.448 18.9403 366.534 19.3063 367.266 20.0383L366.294 21.6763C365.742 21.1483 365.07 20.8843 364.278 20.8843C363.678 20.8843 363.15 21.1003 362.694 21.5323C362.25 21.9403 362.028 22.4923 362.028 23.1883C362.028 23.8843 362.256 24.4483 362.712 24.8803C363.192 25.3003 363.744 25.5103 364.368 25.5103C365.172 25.5103 365.868 25.1803 366.456 24.5203ZM374.094 19.1383H376.704L373.662 22.8463L377.064 27.2383H374.4L371.196 23.0083L374.094 19.1383ZM371.16 27.2383H369.09V14.6383H371.16V27.2383ZM384.22 27.2383H382.15V14.6383H384.22V19.8763C384.82 19.2883 385.594 18.9943 386.542 18.9943C388.762 18.9943 389.872 20.1763 389.872 22.5403V27.2383H387.802V22.8103C387.802 22.2103 387.646 21.7483 387.334 21.4243C387.022 21.1003 386.578 20.9383 386.002 20.9383C385.306 20.9383 384.712 21.1843 384.22 21.6763V27.2383ZM398.33 24.9703L398.924 26.4283C398.12 27.1003 397.088 27.4363 395.828 27.4363C394.532 27.4363 393.476 27.0463 392.66 26.2663C391.868 25.4983 391.472 24.4723 391.472 23.1883C391.472 21.9883 391.862 20.9803 392.642 20.1643C393.422 19.3483 394.46 18.9403 395.756 18.9403C396.824 18.9403 397.73 19.2943 398.474 20.0023C399.218 20.7103 399.59 21.6103 399.59 22.7023C399.59 23.1823 399.548 23.5543 399.464 23.8183H393.614C393.698 24.4063 393.956 24.8683 394.388 25.2043C394.832 25.5403 395.384 25.7083 396.044 25.7083C396.944 25.7083 397.706 25.4623 398.33 24.9703ZM395.666 20.6683C394.49 20.6683 393.782 21.2563 393.542 22.4323H397.52C397.532 21.9163 397.364 21.4963 397.016 21.1723C396.68 20.8363 396.23 20.6683 395.666 20.6683ZM403.327 27.2383H401.257V19.1383H403.327V19.9303C403.771 19.3063 404.389 18.9943 405.181 18.9943C405.745 18.9943 406.165 19.0963 406.441 19.3003L405.703 21.2443C405.355 21.0403 405.007 20.9383 404.659 20.9383C404.059 20.9383 403.615 21.2263 403.327 21.8023V27.2383ZM413.975 24.9703L414.569 26.4283C413.765 27.1003 412.733 27.4363 411.473 27.4363C410.177 27.4363 409.121 27.0463 408.305 26.2663C407.513 25.4983 407.117 24.4723 407.117 23.1883C407.117 21.9883 407.507 20.9803 408.287 20.1643C409.067 19.3483 410.105 18.9403 411.401 18.9403C412.469 18.9403 413.375 19.2943 414.119 20.0023C414.863 20.7103 415.235 21.6103 415.235 22.7023C415.235 23.1823 415.193 23.5543 415.109 23.8183H409.259C409.343 24.4063 409.601 24.8683 410.033 25.2043C410.477 25.5403 411.029 25.7083 411.689 25.7083C412.589 25.7083 413.351 25.4623 413.975 24.9703ZM411.311 20.6683C410.135 20.6683 409.427 21.2563 409.187 22.4323H413.165C413.177 21.9163 413.009 21.4963 412.661 21.1723C412.325 20.8363 411.875 20.6683 411.311 20.6683Z" fill="white"/>
<path d="M276.44 39.9133L276.125 38.9533C276.795 38.5433 277.545 38.3383 278.375 38.3383C279.285 38.3383 279.945 38.5633 280.355 39.0133C280.765 39.4633 280.97 40.1583 280.97 41.0983V45.2383H279.83V44.3683C279.3 45.0183 278.58 45.3433 277.67 45.3433C277.05 45.3433 276.55 45.1583 276.17 44.7883C275.79 44.4083 275.6 43.8983 275.6 43.2583C275.6 42.5983 275.835 42.0783 276.305 41.6983C276.775 41.3083 277.39 41.1133 278.15 41.1133C278.86 41.1133 279.42 41.2583 279.83 41.5483C279.83 40.7883 279.725 40.2433 279.515 39.9133C279.305 39.5833 278.9 39.4183 278.3 39.4183C277.69 39.4183 277.07 39.5833 276.44 39.9133ZM278.09 44.2633C278.76 44.2633 279.34 43.9733 279.83 43.3933V42.5383C279.41 42.2383 278.905 42.0883 278.315 42.0883C277.905 42.0883 277.56 42.1883 277.28 42.3883C277.01 42.5783 276.875 42.8483 276.875 43.1983C276.875 43.5283 276.98 43.7883 277.19 43.9783C277.41 44.1683 277.71 44.2633 278.09 44.2633ZM284.179 45.2383H282.979V38.4883H284.179V39.3133C284.429 39.0333 284.754 38.8083 285.154 38.6383C285.564 38.4583 285.974 38.3683 286.384 38.3683C288.254 38.3683 289.189 39.3583 289.189 41.3383V45.2383H287.989V41.5633C287.989 40.1833 287.354 39.4933 286.084 39.4933C285.324 39.4933 284.689 39.7833 284.179 40.3633V45.2383ZM297.362 45.2383H296.162V44.3833C295.562 45.0333 294.847 45.3583 294.017 45.3583C293.027 45.3583 292.237 45.0433 291.647 44.4133C291.057 43.7733 290.762 42.9383 290.762 41.9083C290.762 40.8583 291.107 40.0033 291.797 39.3433C292.497 38.6733 293.382 38.3383 294.452 38.3383C295.132 38.3383 295.702 38.4983 296.162 38.8183V34.7383H297.362V45.2383ZM294.242 44.2333C294.982 44.2333 295.622 43.9333 296.162 43.3333V39.9883C295.602 39.6383 295.047 39.4633 294.497 39.4633C293.807 39.4633 293.222 39.6883 292.742 40.1383C292.272 40.5783 292.037 41.1583 292.037 41.8783C292.037 42.5983 292.237 43.1733 292.637 43.6033C293.047 44.0233 293.582 44.2333 294.242 44.2333ZM309.037 45.2383H307.837V44.3833C307.237 45.0333 306.522 45.3583 305.692 45.3583C304.702 45.3583 303.912 45.0433 303.322 44.4133C302.732 43.7733 302.437 42.9383 302.437 41.9083C302.437 40.8583 302.782 40.0033 303.472 39.3433C304.172 38.6733 305.057 38.3383 306.127 38.3383C306.807 38.3383 307.377 38.4983 307.837 38.8183V34.7383H309.037V45.2383ZM305.917 44.2333C306.657 44.2333 307.297 43.9333 307.837 43.3333V39.9883C307.277 39.6383 306.722 39.4633 306.172 39.4633C305.482 39.4633 304.897 39.6883 304.417 40.1383C303.947 40.5783 303.712 41.1583 303.712 41.8783C303.712 42.5983 303.912 43.1733 304.312 43.6033C304.722 44.0233 305.257 44.2333 305.917 44.2333ZM312.722 45.2383H311.522V38.4883H312.722V45.2383ZM311.372 35.9533C311.372 35.7433 311.447 35.5733 311.597 35.4433C311.747 35.3033 311.932 35.2333 312.152 35.2333C312.362 35.2333 312.537 35.3033 312.677 35.4433C312.817 35.5733 312.887 35.7433 312.887 35.9533C312.887 36.1833 312.817 36.3733 312.677 36.5233C312.537 36.6633 312.362 36.7333 312.152 36.7333C311.932 36.7333 311.747 36.6633 311.597 36.5233C311.447 36.3733 311.372 36.1833 311.372 35.9533ZM318.626 43.4083C318.626 43.1683 318.501 42.9683 318.251 42.8083C318.001 42.6483 317.696 42.5183 317.336 42.4183C316.986 42.3083 316.631 42.1833 316.271 42.0433C315.911 41.9033 315.606 41.6833 315.356 41.3833C315.106 41.0733 314.981 40.6933 314.981 40.2433C314.981 39.6733 315.191 39.2133 315.611 38.8633C316.031 38.5133 316.586 38.3383 317.276 38.3383C318.266 38.3383 319.041 38.6033 319.601 39.1333L319.031 40.0483C318.531 39.6083 317.966 39.3883 317.336 39.3883C317.016 39.3883 316.756 39.4683 316.556 39.6283C316.356 39.7883 316.256 39.9883 316.256 40.2283C316.256 40.4883 316.381 40.7033 316.631 40.8733C316.881 41.0333 317.181 41.1683 317.531 41.2783C317.891 41.3783 318.251 41.4983 318.611 41.6383C318.971 41.7683 319.276 41.9783 319.526 42.2683C319.776 42.5583 319.901 42.9183 319.901 43.3483C319.901 44.0183 319.651 44.5283 319.151 44.8783C318.661 45.2183 318.041 45.3883 317.291 45.3883C316.761 45.3883 316.256 45.2783 315.776 45.0583C315.286 44.8283 314.961 44.5883 314.801 44.3383L315.476 43.4833C315.676 43.7133 315.966 43.9133 316.346 44.0833C316.746 44.2533 317.106 44.3383 317.426 44.3383C317.776 44.3383 318.061 44.2583 318.281 44.0983C318.511 43.9283 318.626 43.6983 318.626 43.4083ZM326.841 43.3933L327.411 44.2633C326.831 45.0133 325.966 45.3883 324.816 45.3883C323.736 45.3883 322.861 45.0683 322.191 44.4283C321.531 43.7883 321.201 42.9333 321.201 41.8633C321.201 40.8733 321.526 40.0383 322.176 39.3583C322.826 38.6783 323.641 38.3383 324.621 38.3383C325.801 38.3383 326.686 38.6333 327.276 39.2233L326.721 40.1683C326.201 39.6983 325.556 39.4633 324.786 39.4633C324.156 39.4633 323.611 39.6933 323.151 40.1533C322.701 40.6033 322.476 41.1733 322.476 41.8633C322.476 42.5933 322.706 43.1733 323.166 43.6033C323.636 44.0433 324.216 44.2633 324.906 44.2633C325.686 44.2633 326.331 43.9733 326.841 43.3933ZM329.149 44.3983C328.489 43.7183 328.159 42.8733 328.159 41.8633C328.159 40.8433 328.489 40.0033 329.149 39.3433C329.819 38.6733 330.689 38.3383 331.759 38.3383C332.829 38.3383 333.694 38.6733 334.354 39.3433C335.024 40.0033 335.359 40.8433 335.359 41.8633C335.359 42.8833 335.024 43.7283 334.354 44.3983C333.694 45.0583 332.829 45.3883 331.759 45.3883C330.699 45.3883 329.829 45.0583 329.149 44.3983ZM330.094 40.1383C329.654 40.5783 329.434 41.1533 329.434 41.8633C329.434 42.5733 329.649 43.1483 330.079 43.5883C330.519 44.0383 331.079 44.2633 331.759 44.2633C332.439 44.2633 332.994 44.0433 333.424 43.6033C333.864 43.1533 334.084 42.5733 334.084 41.8633C334.084 41.1733 333.864 40.5983 333.424 40.1383C332.994 39.6883 332.439 39.4633 331.759 39.4633C331.079 39.4633 330.524 39.6883 330.094 40.1383ZM341.537 38.4883H342.812L339.827 45.2983H338.957L335.822 38.4883H337.232L338.867 42.1333C339.057 42.5533 339.247 43.0533 339.437 43.6333C339.577 43.1633 339.762 42.6533 339.992 42.1033L341.537 38.4883ZM349.022 43.5583L349.397 44.5033C348.747 45.0933 347.902 45.3883 346.862 45.3883C345.762 45.3883 344.887 45.0683 344.237 44.4283C343.577 43.7883 343.247 42.9333 343.247 41.8633C343.247 40.8533 343.557 40.0133 344.177 39.3433C344.787 38.6733 345.637 38.3383 346.727 38.3383C347.627 38.3383 348.372 38.6283 348.962 39.2083C349.562 39.7783 349.862 40.5183 349.862 41.4283C349.862 41.7183 349.837 41.9883 349.787 42.2383H344.597C344.647 42.8683 344.882 43.3633 345.302 43.7233C345.732 44.0833 346.282 44.2633 346.952 44.2633C347.832 44.2633 348.522 44.0283 349.022 43.5583ZM346.667 39.4633C346.077 39.4633 345.587 39.6283 345.197 39.9583C344.817 40.2883 344.592 40.7233 344.522 41.2633H348.617C348.587 40.7033 348.397 40.2633 348.047 39.9433C347.707 39.6233 347.247 39.4633 346.667 39.4633ZM352.69 45.2383H351.49V38.4883H352.69V39.2833C353.09 38.6733 353.655 38.3683 354.385 38.3683C354.855 38.3683 355.205 38.4533 355.435 38.6233L355.015 39.7483C354.725 39.5783 354.42 39.4933 354.1 39.4933C353.49 39.4933 353.02 39.8133 352.69 40.4533V45.2383ZM364.727 38.4883H366.092L363.392 45.2383C362.902 46.4283 362.477 47.2183 362.117 47.6083C361.737 48.0283 361.302 48.2383 360.812 48.2383C360.372 48.2383 359.947 48.0983 359.537 47.8183L359.927 46.9033C360.247 47.0533 360.497 47.1283 360.677 47.1283C360.957 47.1283 361.207 47.0083 361.427 46.7683C361.657 46.5283 361.887 46.1383 362.117 45.5983L362.267 45.2383L359.027 38.4883H360.467L362.447 42.7783C362.487 42.8483 362.622 43.1883 362.852 43.7983C362.942 43.4683 363.047 43.1233 363.167 42.7633L364.727 38.4883ZM367.601 44.3983C366.941 43.7183 366.611 42.8733 366.611 41.8633C366.611 40.8433 366.941 40.0033 367.601 39.3433C368.271 38.6733 369.141 38.3383 370.211 38.3383C371.281 38.3383 372.146 38.6733 372.806 39.3433C373.476 40.0033 373.811 40.8433 373.811 41.8633C373.811 42.8833 373.476 43.7283 372.806 44.3983C372.146 45.0583 371.281 45.3883 370.211 45.3883C369.151 45.3883 368.281 45.0583 367.601 44.3983ZM368.546 40.1383C368.106 40.5783 367.886 41.1533 367.886 41.8633C367.886 42.5733 368.101 43.1483 368.531 43.5883C368.971 44.0383 369.531 44.2633 370.211 44.2633C370.891 44.2633 371.446 44.0433 371.876 43.6033C372.316 43.1533 372.536 42.5733 372.536 41.8633C372.536 41.1733 372.316 40.5983 371.876 40.1383C371.446 39.6883 370.891 39.4633 370.211 39.4633C369.531 39.4633 368.976 39.6883 368.546 40.1383ZM380.268 38.4883H381.468V45.2383H380.268V44.2783C379.638 45.0183 378.843 45.3883 377.883 45.3883C377.093 45.3883 376.478 45.1483 376.038 44.6683C375.608 44.1783 375.393 43.4583 375.393 42.5083V38.4883H376.593V42.2383C376.593 43.5883 377.173 44.2633 378.333 44.2633C378.693 44.2633 379.048 44.1733 379.398 43.9933C379.758 43.8033 380.048 43.5583 380.268 43.2583V38.4883ZM384.843 45.2383H383.643V38.4883H384.843V39.2833C385.243 38.6733 385.808 38.3683 386.538 38.3683C387.008 38.3683 387.358 38.4533 387.588 38.6233L387.168 39.7483C386.878 39.5783 386.573 39.4933 386.253 39.4933C385.643 39.4933 385.173 39.8133 384.843 40.4533V45.2383ZM393.31 48.2383H392.11V38.4883H393.31V39.2833C393.55 39.0033 393.88 38.7783 394.3 38.6083C394.72 38.4283 395.155 38.3383 395.605 38.3383C396.565 38.3383 397.32 38.6583 397.87 39.2983C398.44 39.9283 398.725 40.7483 398.725 41.7583C398.725 42.7883 398.4 43.6533 397.75 44.3533C397.11 45.0433 396.265 45.3883 395.215 45.3883C394.405 45.3883 393.77 45.2333 393.31 44.9233V48.2383ZM395.26 39.4633C394.46 39.4633 393.81 39.7733 393.31 40.3933V43.7383C393.84 44.0883 394.44 44.2633 395.11 44.2633C395.82 44.2633 396.385 44.0383 396.805 43.5883C397.235 43.1283 397.45 42.5333 397.45 41.8033C397.45 41.0933 397.255 40.5283 396.865 40.1083C396.475 39.6783 395.94 39.4633 395.26 39.4633ZM405.77 43.5583L406.145 44.5033C405.495 45.0933 404.65 45.3883 403.61 45.3883C402.51 45.3883 401.635 45.0683 400.985 44.4283C400.325 43.7883 399.995 42.9333 399.995 41.8633C399.995 40.8533 400.305 40.0133 400.925 39.3433C401.535 38.6733 402.385 38.3383 403.475 38.3383C404.375 38.3383 405.12 38.6283 405.71 39.2083C406.31 39.7783 406.61 40.5183 406.61 41.4283C406.61 41.7183 406.585 41.9883 406.535 42.2383H401.345C401.395 42.8683 401.63 43.3633 402.05 43.7233C402.48 44.0833 403.03 44.2633 403.7 44.2633C404.58 44.2633 405.27 44.0283 405.77 43.5583ZM403.415 39.4633C402.825 39.4633 402.335 39.6283 401.945 39.9583C401.565 40.2883 401.34 40.7233 401.27 41.2633H405.365C405.335 40.7033 405.145 40.2633 404.795 39.9433C404.455 39.6233 403.995 39.4633 403.415 39.4633ZM409.438 45.2383H408.238V38.4883H409.438V39.2833C409.838 38.6733 410.403 38.3683 411.133 38.3683C411.603 38.3683 411.953 38.4533 412.183 38.6233L411.763 39.7483C411.473 39.5783 411.168 39.4933 410.848 39.4933C410.238 39.4933 409.768 39.8133 409.438 40.4533V45.2383ZM414.686 45.2383H413.486V37.3933C413.486 36.4733 413.691 35.7783 414.101 35.3083C414.511 34.8283 415.096 34.5883 415.856 34.5883C416.646 34.5883 417.246 34.7883 417.656 35.1883L417.236 36.1033C416.916 35.8433 416.521 35.7133 416.051 35.7133C415.141 35.7133 414.686 36.3183 414.686 37.5283V38.4883H416.936V39.6133H414.686V45.2383ZM423.48 43.5583L423.855 44.5033C423.205 45.0933 422.36 45.3883 421.32 45.3883C420.22 45.3883 419.345 45.0683 418.695 44.4283C418.035 43.7883 417.705 42.9333 417.705 41.8633C417.705 40.8533 418.015 40.0133 418.635 39.3433C419.245 38.6733 420.095 38.3383 421.185 38.3383C422.085 38.3383 422.83 38.6283 423.42 39.2083C424.02 39.7783 424.32 40.5183 424.32 41.4283C424.32 41.7183 424.295 41.9883 424.245 42.2383H419.055C419.105 42.8683 419.34 43.3633 419.76 43.7233C420.19 44.0833 420.74 44.2633 421.41 44.2633C422.29 44.2633 422.98 44.0283 423.48 43.5583ZM421.125 39.4633C420.535 39.4633 420.045 39.6283 419.655 39.9583C419.275 40.2883 419.05 40.7233 418.98 41.2633H423.075C423.045 40.7033 422.855 40.2633 422.505 39.9433C422.165 39.6233 421.705 39.4633 421.125 39.4633ZM431.05 43.3933L431.62 44.2633C431.04 45.0133 430.175 45.3883 429.025 45.3883C427.945 45.3883 427.07 45.0683 426.4 44.4283C425.74 43.7883 425.41 42.9333 425.41 41.8633C425.41 40.8733 425.735 40.0383 426.385 39.3583C427.035 38.6783 427.85 38.3383 428.83 38.3383C430.01 38.3383 430.895 38.6333 431.485 39.2233L430.93 40.1683C430.41 39.6983 429.765 39.4633 428.995 39.4633C428.365 39.4633 427.82 39.6933 427.36 40.1533C426.91 40.6033 426.685 41.1733 426.685 41.8633C426.685 42.5933 426.915 43.1733 427.375 43.6033C427.845 44.0433 428.425 44.2633 429.115 44.2633C429.895 44.2633 430.54 43.9733 431.05 43.3933ZM433.034 42.6733V36.6133H434.234V38.4883H436.709V39.6133H434.234V42.5533C434.234 43.6733 434.634 44.2333 435.434 44.2333C435.824 44.2333 436.179 44.1083 436.499 43.8583L436.874 44.7883C436.404 45.1683 435.829 45.3583 435.149 45.3583C434.419 45.3583 433.884 45.1383 433.544 44.6983C433.204 44.2583 433.034 43.5833 433.034 42.6733ZM441.842 44.6083V34.7383H443.042V39.1333C443.292 38.8933 443.607 38.7033 443.987 38.5633C444.377 38.4133 444.762 38.3383 445.142 38.3383C446.132 38.3383 446.912 38.6533 447.482 39.2833C448.062 39.9033 448.352 40.7283 448.352 41.7583C448.352 42.8683 448.012 43.7533 447.332 44.4133C446.652 45.0633 445.742 45.3883 444.602 45.3883C443.472 45.3883 442.552 45.1283 441.842 44.6083ZM444.872 39.4633C444.522 39.4633 444.177 39.5483 443.837 39.7183C443.497 39.8883 443.232 40.0933 443.042 40.3333V43.7983C443.502 44.1083 444.042 44.2633 444.662 44.2633C445.372 44.2633 445.952 44.0433 446.402 43.6033C446.852 43.1633 447.077 42.5783 447.077 41.8483C447.077 41.1083 446.877 40.5283 446.477 40.1083C446.077 39.6783 445.542 39.4633 444.872 39.4633ZM450.614 44.3983C449.954 43.7183 449.624 42.8733 449.624 41.8633C449.624 40.8433 449.954 40.0033 450.614 39.3433C451.284 38.6733 452.154 38.3383 453.224 38.3383C454.294 38.3383 455.159 38.6733 455.819 39.3433C456.489 40.0033 456.824 40.8433 456.824 41.8633C456.824 42.8833 456.489 43.7283 455.819 44.3983C455.159 45.0583 454.294 45.3883 453.224 45.3883C452.164 45.3883 451.294 45.0583 450.614 44.3983ZM451.559 40.1383C451.119 40.5783 450.899 41.1533 450.899 41.8633C450.899 42.5733 451.114 43.1483 451.544 43.5883C451.984 44.0383 452.544 44.2633 453.224 44.2633C453.904 44.2633 454.459 44.0433 454.889 43.6033C455.329 43.1533 455.549 42.5733 455.549 41.8633C455.549 41.1733 455.329 40.5983 454.889 40.1383C454.459 39.6883 453.904 39.4633 453.224 39.4633C452.544 39.4633 451.989 39.6883 451.559 40.1383ZM464.706 45.2383H463.506V44.3833C462.906 45.0333 462.191 45.3583 461.361 45.3583C460.371 45.3583 459.581 45.0433 458.991 44.4133C458.401 43.7733 458.106 42.9383 458.106 41.9083C458.106 40.8583 458.451 40.0033 459.141 39.3433C459.841 38.6733 460.726 38.3383 461.796 38.3383C462.476 38.3383 463.046 38.4983 463.506 38.8183V34.7383H464.706V45.2383ZM461.586 44.2333C462.326 44.2333 462.966 43.9333 463.506 43.3333V39.9883C462.946 39.6383 462.391 39.4633 461.841 39.4633C461.151 39.4633 460.566 39.6883 460.086 40.1383C459.616 40.5783 459.381 41.1583 459.381 41.8783C459.381 42.5983 459.581 43.1733 459.981 43.6033C460.391 44.0233 460.926 44.2333 461.586 44.2333ZM471.631 38.4883H472.996L470.296 45.2383C469.806 46.4283 469.381 47.2183 469.021 47.6083C468.641 48.0283 468.206 48.2383 467.716 48.2383C467.276 48.2383 466.851 48.0983 466.441 47.8183L466.831 46.9033C467.151 47.0533 467.401 47.1283 467.581 47.1283C467.861 47.1283 468.111 47.0083 468.331 46.7683C468.561 46.5283 468.791 46.1383 469.021 45.5983L469.171 45.2383L465.931 38.4883H467.371L469.351 42.7783C469.391 42.8483 469.526 43.1883 469.756 43.7983C469.846 43.4683 469.951 43.1233 470.071 42.7633L471.631 38.4883ZM476.104 42.0133H474.829V34.7383H476.104V42.0133ZM474.634 44.4283C474.634 44.2083 474.714 44.0233 474.874 43.8733C475.034 43.7133 475.244 43.6333 475.504 43.6333C475.714 43.6333 475.899 43.7133 476.059 43.8733C476.219 44.0333 476.299 44.2183 476.299 44.4283C476.299 44.6683 476.224 44.8733 476.074 45.0433C475.924 45.2033 475.734 45.2833 475.504 45.2833C475.244 45.2833 475.034 45.2033 474.874 45.0433C474.714 44.8733 474.634 44.6683 474.634 44.4283Z" fill="white"/>
</svg>
