<svg width="36" height="36" viewBox="0 0 36 36" fill="none" xmlns="http://www.w3.org/2000/svg">
<path d="M20.73 4.50002C20.73 4.19935 20.5504 3.92774 20.2738 3.80996C19.9971 3.69218 19.6769 3.751 19.4602 3.95939L16.7932 6.52375C12.8224 10.3419 9.46716 14.7522 6.84691 19.5977C6.78522 19.7067 6.75 19.8326 6.75 19.9667C6.75 20.3809 7.08579 20.7167 7.5 20.7167H13.965V31.5C13.965 31.797 14.1403 32.066 14.4119 32.1861C14.6836 32.3061 15.0005 32.2545 15.2201 32.0545L16.4133 30.9675C20.5904 27.1625 24.1353 22.7169 26.9149 17.7975L27.653 16.4913C27.7842 16.2591 27.7822 15.9746 27.6478 15.7443C27.5133 15.5139 27.2667 15.3723 27 15.3723H20.73V4.50002Z" fill="#4D4D4D"/>
</svg>
