<svg width="36" height="36" viewBox="0 0 36 36" fill="none" xmlns="http://www.w3.org/2000/svg">
<path d="M13.6021 4.84234C11.5569 4.61375 9.44329 4.61375 7.39805 4.84234C6.08228 4.98939 5.01833 6.02553 4.86316 7.35218C4.61853 9.44381 4.61853 11.5568 4.86316 13.6484C5.01833 14.9751 6.08228 16.0112 7.39805 16.1583C9.44329 16.3869 11.5569 16.3869 13.6021 16.1583C14.9179 16.0112 15.9818 14.9751 16.137 13.6484C16.3816 11.5568 16.3816 9.4438 16.137 7.35218C15.9818 6.02553 14.9179 4.98939 13.6021 4.84234Z" fill="#4D4D4D"/>
<path d="M13.6021 19.8423C11.5569 19.6138 9.44329 19.6138 7.39805 19.8423C6.08228 19.9894 5.01833 21.0255 4.86316 22.3522C4.61853 24.4438 4.61853 26.5568 4.86316 28.6484C5.01833 29.9751 6.08228 31.0112 7.39805 31.1583C9.44329 31.3869 11.5569 31.3869 13.6021 31.1583C14.9179 31.0112 15.9818 29.9751 16.137 28.6484C16.3816 26.5568 16.3816 24.4438 16.137 22.3522C15.9818 21.0255 14.9179 19.9894 13.6021 19.8423Z" fill="#4D4D4D"/>
<path d="M28.6021 4.84234C26.5569 4.61375 24.4433 4.61375 22.3981 4.84234C21.0823 4.98939 20.0183 6.02553 19.8632 7.35218C19.6186 9.44381 19.6186 11.5568 19.8632 13.6484C20.0183 14.9751 21.0823 16.0112 22.3981 16.1583C24.4433 16.3869 26.5569 16.3869 28.6021 16.1583C29.9179 16.0112 30.9818 14.9751 31.137 13.6484C31.3816 11.5568 31.3816 9.4438 31.137 7.35218C30.9818 6.02553 29.9179 4.98939 28.6021 4.84234Z" fill="#4D4D4D"/>
<path d="M28.6021 19.8423C26.5569 19.6138 24.4433 19.6138 22.3981 19.8423C21.0823 19.9894 20.0183 21.0255 19.8632 22.3522C19.6186 24.4438 19.6186 26.5568 19.8632 28.6484C20.0183 29.9751 21.0823 31.0112 22.3981 31.1583C24.4433 31.3869 26.5569 31.3869 28.6021 31.1583C29.9179 31.0112 30.9818 29.9751 31.137 28.6484C31.3816 26.5568 31.3816 24.4438 31.137 22.3522C30.9818 21.0255 29.9179 19.9894 28.6021 19.8423Z" fill="#4D4D4D"/>
</svg>
