<?xml version="1.0" encoding="UTF-8" standalone="no"?><svg width="320" height="48" viewBox="0 0 320 48" fill="none" xmlns="http://www.w3.org/2000/svg">
<path d="M0 12C0 5.37258 5.37258 0 12 0H308C314.627 0 320 5.37258 320 12V36C320 42.6274 314.627 48 308 48H12C5.37259 48 0 42.6274 0 36V12Z" fill="#F7F7F7"/>
<path d="M176 13C176 6.92487 180.925 2 187 2H307C313.075 2 318 6.92487 318 13V35C318 41.0751 313.075 46 307 46H187C180.925 46 176 41.0751 176 35V13Z" fill="#FF284C"/>
<path d="M196.355 25.07H193.82V23.345H198.08V27.695C197.63 28.145 197.03 28.505 196.28 28.775C195.53 29.035 194.82 29.165 194.15 29.165C192.45 29.165 191.11 28.675 190.13 27.695C189.16 26.725 188.675 25.41 188.675 23.75C188.675 22.21 189.155 20.925 190.115 19.895C191.075 18.855 192.34 18.335 193.91 18.335C195.25 18.335 196.375 18.69 197.285 19.4L196.505 20.87C196.245 20.62 195.9 20.425 195.47 20.285C195.04 20.135 194.595 20.06 194.135 20.06C193.085 20.06 192.24 20.39 191.6 21.05C190.95 21.7 190.625 22.6 190.625 23.75C190.625 24.86 190.95 25.755 191.6 26.435C192.24 27.105 193.1 27.44 194.18 27.44C194.56 27.44 194.97 27.37 195.41 27.23C195.85 27.08 196.165 26.91 196.355 26.72V25.07ZM205.153 27.11L205.648 28.325C204.978 28.885 204.118 29.165 203.068 29.165C201.988 29.165 201.108 28.84 200.428 28.19C199.768 27.55 199.438 26.695 199.438 25.625C199.438 24.625 199.763 23.785 200.413 23.105C201.063 22.425 201.928 22.085 203.008 22.085C203.898 22.085 204.653 22.38 205.273 22.97C205.893 23.56 206.203 24.31 206.203 25.22C206.203 25.62 206.168 25.93 206.098 26.15H201.223C201.293 26.64 201.508 27.025 201.868 27.305C202.238 27.585 202.698 27.725 203.248 27.725C203.998 27.725 204.633 27.52 205.153 27.11ZM202.933 23.525C201.953 23.525 201.363 24.015 201.163 24.995H204.478C204.488 24.565 204.348 24.215 204.058 23.945C203.778 23.665 203.403 23.525 202.933 23.525ZM207.443 26.435V20.375H209.168V22.25H211.343V23.87H209.168V26.33C209.168 27.14 209.438 27.545 209.978 27.545C210.318 27.545 210.663 27.415 211.013 27.155L211.538 28.49C210.988 28.93 210.323 29.15 209.543 29.15C208.813 29.15 208.278 28.93 207.938 28.49C207.608 28.04 207.443 27.355 207.443 26.435ZM216.702 23.99L216.267 22.73C216.997 22.3 217.792 22.085 218.652 22.085C219.592 22.085 220.277 22.315 220.707 22.775C221.137 23.235 221.352 23.94 221.352 24.89V29H219.852V28.22C219.452 28.8 218.787 29.09 217.857 29.09C217.217 29.09 216.702 28.905 216.312 28.535C215.932 28.155 215.742 27.65 215.742 27.02C215.742 26.32 215.967 25.78 216.417 25.4C216.867 25.02 217.462 24.83 218.202 24.83C218.812 24.83 219.322 24.975 219.732 25.265C219.752 24.665 219.662 24.225 219.462 23.945C219.272 23.665 218.942 23.525 218.472 23.525C217.952 23.525 217.362 23.68 216.702 23.99ZM218.427 27.635C219.007 27.635 219.442 27.43 219.732 27.02V26.33C219.452 26.11 219.057 26 218.547 26C218.227 26 217.967 26.075 217.767 26.225C217.567 26.375 217.467 26.58 217.467 26.84C217.467 27.08 217.557 27.275 217.737 27.425C217.917 27.565 218.147 27.635 218.427 27.635ZM228.235 26.735L229.045 27.995C228.475 28.775 227.58 29.165 226.36 29.165C225.27 29.165 224.385 28.84 223.705 28.19C223.035 27.55 222.7 26.695 222.7 25.625C222.7 24.615 223.03 23.775 223.69 23.105C224.35 22.425 225.185 22.085 226.195 22.085C227.395 22.085 228.3 22.39 228.91 23L228.1 24.365C227.64 23.925 227.08 23.705 226.42 23.705C225.92 23.705 225.48 23.885 225.1 24.245C224.73 24.585 224.545 25.045 224.545 25.625C224.545 26.205 224.735 26.675 225.115 27.035C225.515 27.385 225.975 27.56 226.495 27.56C227.165 27.56 227.745 27.285 228.235 26.735ZM235.179 26.735L235.989 27.995C235.419 28.775 234.524 29.165 233.304 29.165C232.214 29.165 231.329 28.84 230.649 28.19C229.979 27.55 229.644 26.695 229.644 25.625C229.644 24.615 229.974 23.775 230.634 23.105C231.294 22.425 232.129 22.085 233.139 22.085C234.339 22.085 235.244 22.39 235.854 23L235.044 24.365C234.584 23.925 234.024 23.705 233.364 23.705C232.864 23.705 232.424 23.885 232.044 24.245C231.674 24.585 231.489 25.045 231.489 25.625C231.489 26.205 231.679 26.675 232.059 27.035C232.459 27.385 232.919 27.56 233.439 27.56C234.109 27.56 234.689 27.285 235.179 26.735ZM242.302 27.11L242.797 28.325C242.127 28.885 241.267 29.165 240.217 29.165C239.137 29.165 238.257 28.84 237.577 28.19C236.917 27.55 236.587 26.695 236.587 25.625C236.587 24.625 236.912 23.785 237.562 23.105C238.212 22.425 239.077 22.085 240.157 22.085C241.047 22.085 241.802 22.38 242.422 22.97C243.042 23.56 243.352 24.31 243.352 25.22C243.352 25.62 243.317 25.93 243.247 26.15H238.372C238.442 26.64 238.657 27.025 239.017 27.305C239.387 27.585 239.847 27.725 240.397 27.725C241.147 27.725 241.782 27.52 242.302 27.11ZM240.082 23.525C239.102 23.525 238.512 24.015 238.312 24.995H241.627C241.637 24.565 241.497 24.215 241.207 23.945C240.927 23.665 240.552 23.525 240.082 23.525ZM244.516 24.14C244.516 23.51 244.746 23.01 245.206 22.64C245.666 22.27 246.261 22.085 246.991 22.085C248.091 22.085 248.946 22.37 249.556 22.94L248.911 24.17C248.361 23.74 247.751 23.525 247.081 23.525C246.841 23.525 246.641 23.585 246.481 23.705C246.321 23.815 246.241 23.95 246.241 24.11C246.241 24.44 246.666 24.715 247.516 24.935C247.826 25.005 248.101 25.085 248.341 25.175C248.581 25.255 248.826 25.375 249.076 25.535C249.336 25.685 249.536 25.885 249.676 26.135C249.816 26.385 249.886 26.675 249.886 27.005C249.886 27.665 249.636 28.19 249.136 28.58C248.646 28.97 247.986 29.165 247.156 29.165C246.566 29.165 245.991 29.04 245.431 28.79C244.861 28.53 244.496 28.27 244.336 28.01L245.176 26.885C245.366 27.115 245.681 27.31 246.121 27.47C246.571 27.64 246.956 27.725 247.276 27.725C247.666 27.765 247.941 27.64 248.101 27.35C248.261 27.05 248.156 26.805 247.786 26.615C247.636 26.535 247.401 26.45 247.081 26.36C246.771 26.27 246.481 26.18 246.211 26.09C245.951 25.99 245.681 25.865 245.401 25.715C245.131 25.565 244.916 25.36 244.756 25.1C244.596 24.83 244.516 24.51 244.516 24.14ZM251.181 24.14C251.181 23.51 251.411 23.01 251.871 22.64C252.331 22.27 252.926 22.085 253.656 22.085C254.756 22.085 255.611 22.37 256.221 22.94L255.576 24.17C255.026 23.74 254.416 23.525 253.746 23.525C253.506 23.525 253.306 23.585 253.146 23.705C252.986 23.815 252.906 23.95 252.906 24.11C252.906 24.44 253.331 24.715 254.181 24.935C254.491 25.005 254.766 25.085 255.006 25.175C255.246 25.255 255.491 25.375 255.741 25.535C256.001 25.685 256.201 25.885 256.341 26.135C256.481 26.385 256.551 26.675 256.551 27.005C256.551 27.665 256.301 28.19 255.801 28.58C255.311 28.97 254.651 29.165 253.821 29.165C253.231 29.165 252.656 29.04 252.096 28.79C251.526 28.53 251.161 28.27 251.001 28.01L251.841 26.885C252.031 27.115 252.346 27.31 252.786 27.47C253.236 27.64 253.621 27.725 253.941 27.725C254.331 27.765 254.606 27.64 254.766 27.35C254.926 27.05 254.821 26.805 254.451 26.615C254.301 26.535 254.066 26.45 253.746 26.36C253.436 26.27 253.146 26.18 252.876 26.09C252.616 25.99 252.346 25.865 252.066 25.715C251.796 25.565 251.581 25.36 251.421 25.1C251.261 24.83 251.181 24.51 251.181 24.14ZM261.1 26.435V20.375H262.825V22.25H265V23.87H262.825V26.33C262.825 27.14 263.095 27.545 263.635 27.545C263.975 27.545 264.32 27.415 264.67 27.155L265.195 28.49C264.645 28.93 263.98 29.15 263.2 29.15C262.47 29.15 261.935 28.93 261.595 28.49C261.265 28.04 261.1 27.355 261.1 26.435ZM266.977 28.175C266.307 27.505 265.972 26.655 265.972 25.625C265.972 24.595 266.307 23.75 266.977 23.09C267.647 22.42 268.537 22.085 269.647 22.085C270.747 22.085 271.632 22.42 272.302 23.09C272.982 23.75 273.322 24.595 273.322 25.625C273.322 26.645 272.982 27.495 272.302 28.175C271.622 28.835 270.737 29.165 269.647 29.165C268.537 29.165 267.647 28.835 266.977 28.175ZM268.342 24.245C267.992 24.605 267.817 25.065 267.817 25.625C267.817 26.185 267.987 26.65 268.327 27.02C268.677 27.38 269.117 27.56 269.647 27.56C270.187 27.56 270.627 27.38 270.967 27.02C271.317 26.66 271.492 26.195 271.492 25.625C271.492 25.065 271.317 24.605 270.967 24.245C270.617 23.885 270.177 23.705 269.647 23.705C269.127 23.705 268.692 23.885 268.342 24.245ZM277.993 28.415V18.5H279.718V22.67C280.208 22.28 280.803 22.085 281.503 22.085C282.493 22.085 283.273 22.405 283.843 23.045C284.423 23.665 284.713 24.49 284.713 25.52C284.713 26.63 284.363 27.515 283.663 28.175C282.973 28.835 282.038 29.165 280.858 29.165C280.338 29.165 279.813 29.095 279.283 28.955C278.763 28.815 278.333 28.635 277.993 28.415ZM281.098 23.705C280.548 23.705 280.088 23.92 279.718 24.35V27.215C280.088 27.445 280.498 27.56 280.948 27.56C281.518 27.56 281.978 27.39 282.328 27.05C282.688 26.7 282.868 26.23 282.868 25.64C282.868 25.03 282.703 24.555 282.373 24.215C282.043 23.875 281.618 23.705 281.098 23.705ZM291.506 27.11L292.001 28.325C291.331 28.885 290.471 29.165 289.421 29.165C288.341 29.165 287.461 28.84 286.781 28.19C286.121 27.55 285.791 26.695 285.791 25.625C285.791 24.625 286.116 23.785 286.766 23.105C287.416 22.425 288.281 22.085 289.361 22.085C290.251 22.085 291.006 22.38 291.626 22.97C292.246 23.56 292.556 24.31 292.556 25.22C292.556 25.62 292.521 25.93 292.451 26.15H287.576C287.646 26.64 287.861 27.025 288.221 27.305C288.591 27.585 289.051 27.725 289.601 27.725C290.351 27.725 290.986 27.52 291.506 27.11ZM289.286 23.525C288.306 23.525 287.716 24.015 287.516 24.995H290.831C290.841 24.565 290.701 24.215 290.411 23.945C290.131 23.665 289.756 23.525 289.286 23.525ZM293.795 26.435V20.375H295.52V22.25H297.695V23.87H295.52V26.33C295.52 27.14 295.79 27.545 296.33 27.545C296.67 27.545 297.015 27.415 297.365 27.155L297.89 28.49C297.34 28.93 296.675 29.15 295.895 29.15C295.165 29.15 294.63 28.93 294.29 28.49C293.96 28.04 293.795 27.355 293.795 26.435ZM299.876 23.99L299.441 22.73C300.171 22.3 300.966 22.085 301.826 22.085C302.766 22.085 303.451 22.315 303.881 22.775C304.311 23.235 304.526 23.94 304.526 24.89V29H303.026V28.22C302.626 28.8 301.961 29.09 301.031 29.09C300.391 29.09 299.876 28.905 299.486 28.535C299.106 28.155 298.916 27.65 298.916 27.02C298.916 26.32 299.141 25.78 299.591 25.4C300.041 25.02 300.636 24.83 301.376 24.83C301.986 24.83 302.496 24.975 302.906 25.265C302.926 24.665 302.836 24.225 302.636 23.945C302.446 23.665 302.116 23.525 301.646 23.525C301.126 23.525 300.536 23.68 299.876 23.99ZM301.601 27.635C302.181 27.635 302.616 27.43 302.906 27.02V26.33C302.626 26.11 302.231 26 301.721 26C301.401 26 301.141 26.075 300.941 26.225C300.741 26.375 300.641 26.58 300.641 26.84C300.641 27.08 300.731 27.275 300.911 27.425C301.091 27.565 301.321 27.635 301.601 27.635Z" fill="white"/>
<path opacity="0.5" d="M19.515 18.5H20.91L17.145 24.5V29H15.87V24.5L12.15 18.5H13.62L16.56 23.3L19.515 18.5ZM20.9735 28.16C20.3135 27.48 19.9835 26.635 19.9835 25.625C19.9835 24.605 20.3135 23.765 20.9735 23.105C21.6435 22.435 22.5135 22.1 23.5835 22.1C24.6535 22.1 25.5185 22.435 26.1785 23.105C26.8485 23.765 27.1835 24.605 27.1835 25.625C27.1835 26.645 26.8485 27.49 26.1785 28.16C25.5185 28.82 24.6535 29.15 23.5835 29.15C22.5235 29.15 21.6535 28.82 20.9735 28.16ZM21.9185 23.9C21.4785 24.34 21.2585 24.915 21.2585 25.625C21.2585 26.335 21.4735 26.91 21.9035 27.35C22.3435 27.8 22.9035 28.025 23.5835 28.025C24.2635 28.025 24.8185 27.805 25.2485 27.365C25.6885 26.915 25.9085 26.335 25.9085 25.625C25.9085 24.935 25.6885 24.36 25.2485 23.9C24.8185 23.45 24.2635 23.225 23.5835 23.225C22.9035 23.225 22.3485 23.45 21.9185 23.9ZM33.64 22.25H34.84V29H33.64V28.04C33.01 28.78 32.215 29.15 31.255 29.15C30.465 29.15 29.85 28.91 29.41 28.43C28.98 27.94 28.765 27.22 28.765 26.27V22.25H29.965V26C29.965 27.35 30.545 28.025 31.705 28.025C32.065 28.025 32.42 27.935 32.77 27.755C33.13 27.565 33.42 27.32 33.64 27.02V22.25ZM38.2155 29H37.0155V22.25H38.2155V23.045C38.6155 22.435 39.1805 22.13 39.9105 22.13C40.3805 22.13 40.7305 22.215 40.9605 22.385L40.5405 23.51C40.2505 23.34 39.9455 23.255 39.6255 23.255C39.0155 23.255 38.5455 23.575 38.2155 24.215V29ZM52.0523 29H45.9773V18.5H51.9023V19.7H47.2523V23.09H51.4523V24.29H47.2523V27.8H52.0523V29ZM64.1303 24.575V29H62.9303V24.905C62.9303 23.805 62.4453 23.255 61.4753 23.255C61.0853 23.255 60.7303 23.345 60.4103 23.525C60.1003 23.695 59.8653 23.93 59.7053 24.23C59.7153 24.28 59.7203 24.44 59.7203 24.71V29H58.5203V24.65C58.5203 24.22 58.3903 23.88 58.1303 23.63C57.8803 23.38 57.5303 23.255 57.0803 23.255C56.3303 23.255 55.7403 23.56 55.3103 24.17V29H54.1103V22.25H55.3103V23.105C55.5603 22.815 55.8853 22.58 56.2853 22.4C56.6953 22.22 57.1153 22.13 57.5453 22.13C58.0553 22.13 58.4903 22.235 58.8503 22.445C59.2103 22.655 59.4553 22.94 59.5853 23.3C59.8353 22.94 60.1703 22.655 60.5903 22.445C61.0103 22.235 61.4653 22.13 61.9553 22.13C63.4053 22.13 64.1303 22.945 64.1303 24.575ZM66.5113 23.675L66.1963 22.715C66.8663 22.305 67.6163 22.1 68.4463 22.1C69.3563 22.1 70.0163 22.325 70.4263 22.775C70.8363 23.225 71.0413 23.92 71.0413 24.86V29H69.9013V28.13C69.3713 28.78 68.6513 29.105 67.7413 29.105C67.1213 29.105 66.6213 28.92 66.2413 28.55C65.8613 28.17 65.6713 27.66 65.6713 27.02C65.6713 26.36 65.9063 25.84 66.3763 25.46C66.8463 25.07 67.4613 24.875 68.2213 24.875C68.9313 24.875 69.4913 25.02 69.9013 25.31C69.9013 24.55 69.7963 24.005 69.5863 23.675C69.3763 23.345 68.9713 23.18 68.3713 23.18C67.7613 23.18 67.1413 23.345 66.5113 23.675ZM68.1613 28.025C68.8313 28.025 69.4113 27.735 69.9013 27.155V26.3C69.4813 26 68.9763 25.85 68.3863 25.85C67.9763 25.85 67.6313 25.95 67.3513 26.15C67.0813 26.34 66.9463 26.61 66.9463 26.96C66.9463 27.29 67.0513 27.55 67.2613 27.74C67.4813 27.93 67.7813 28.025 68.1613 28.025ZM74.5807 29H73.3807V22.25H74.5807V29ZM73.2307 19.715C73.2307 19.505 73.3057 19.335 73.4557 19.205C73.6057 19.065 73.7907 18.995 74.0107 18.995C74.2207 18.995 74.3957 19.065 74.5357 19.205C74.6757 19.335 74.7457 19.505 74.7457 19.715C74.7457 19.945 74.6757 20.135 74.5357 20.285C74.3957 20.425 74.2207 20.495 74.0107 20.495C73.7907 20.495 73.6057 20.425 73.4557 20.285C73.3057 20.135 73.2307 19.945 73.2307 19.715ZM77.0644 27.2V18.5H78.2644V26.66C78.2644 27.55 78.5294 27.995 79.0594 27.995C79.3194 27.995 79.6044 27.895 79.9144 27.695L80.1844 28.61C79.7544 28.95 79.2244 29.12 78.5944 29.12C77.5744 29.12 77.0644 28.48 77.0644 27.2Z" fill="#050505"/>
</svg>
