<svg width="116" height="51" viewBox="0 0 116 51" fill="none" xmlns="http://www.w3.org/2000/svg">
<path d="M0 6C0 2.68629 2.68629 0 6 0L78 0C81.3137 0 84 2.68629 84 6V17C84 20.3137 81.3137 23 78 23H6C2.68629 23 0 20.3137 0 17L0 6Z" fill="#171819"/>
<path d="M29 32C29 28.6863 31.6863 26 35 26H110C113.314 26 116 28.6863 116 32V43C116 46.3137 113.314 49 110 49H35C31.6863 49 29 46.3137 29 43V32Z" fill="#171819"/>
<path d="M9.47725 13.11V17.04H7.63225V6.54004C8.15225 6.54004 8.71725 6.53504 9.32725 6.52504C9.93725 6.51504 10.4372 6.51004 10.8272 6.51004C13.3672 6.51004 14.6372 7.59004 14.6372 9.75004C14.6372 10.55 14.4322 11.21 14.0222 11.73C13.6122 12.23 13.1422 12.57 12.6122 12.75L15.8972 17.04H13.6622L10.7672 13.11H9.47725ZM10.7372 8.23504C10.6872 8.23504 10.6072 8.24004 10.4972 8.25004C10.3872 8.25004 10.2322 8.25504 10.0322 8.26504C9.83225 8.26504 9.64725 8.26504 9.47725 8.26504V11.385H10.6772C11.2672 11.385 11.7472 11.24 12.1172 10.95C12.4972 10.66 12.6872 10.265 12.6872 9.76504C12.6872 8.74504 12.0372 8.23504 10.7372 8.23504ZM21.6901 15.15L22.1851 16.365C21.5151 16.925 20.6551 17.205 19.6051 17.205C18.5251 17.205 17.6451 16.88 16.9651 16.23C16.3051 15.59 15.9751 14.735 15.9751 13.665C15.9751 12.665 16.3001 11.825 16.9501 11.145C17.6001 10.465 18.4651 10.125 19.5451 10.125C20.4351 10.125 21.1901 10.42 21.8101 11.01C22.4301 11.6 22.7401 12.35 22.7401 13.26C22.7401 13.66 22.7051 13.97 22.6351 14.19H17.7601C17.8301 14.68 18.0451 15.065 18.4051 15.345C18.7751 15.625 19.2351 15.765 19.7851 15.765C20.5351 15.765 21.1701 15.56 21.6901 15.15ZM19.4701 11.565C18.4901 11.565 17.9001 12.055 17.7001 13.035H21.0151C21.0251 12.605 20.8851 12.255 20.5951 11.985C20.3151 11.705 19.9401 11.565 19.4701 11.565ZM24.6544 12.03L24.2194 10.77C24.9494 10.34 25.7444 10.125 26.6044 10.125C27.5444 10.125 28.2294 10.355 28.6594 10.815C29.0894 11.275 29.3044 11.98 29.3044 12.93V17.04H27.8044V16.26C27.4044 16.84 26.7394 17.13 25.8094 17.13C25.1694 17.13 24.6544 16.945 24.2644 16.575C23.8844 16.195 23.6944 15.69 23.6944 15.06C23.6944 14.36 23.9194 13.82 24.3694 13.44C24.8194 13.06 25.4144 12.87 26.1544 12.87C26.7644 12.87 27.2744 13.015 27.6844 13.305C27.7044 12.705 27.6144 12.265 27.4144 11.985C27.2244 11.705 26.8944 11.565 26.4244 11.565C25.9044 11.565 25.3144 11.72 24.6544 12.03ZM26.3794 15.675C26.9594 15.675 27.3944 15.47 27.6844 15.06V14.37C27.4044 14.15 27.0094 14.04 26.4994 14.04C26.1794 14.04 25.9194 14.115 25.7194 14.265C25.5194 14.415 25.4194 14.62 25.4194 14.88C25.4194 15.12 25.5094 15.315 25.6894 15.465C25.8694 15.605 26.0994 15.675 26.3794 15.675ZM36.1878 14.775L36.9978 16.035C36.4278 16.815 35.5328 17.205 34.3128 17.205C33.2228 17.205 32.3378 16.88 31.6578 16.23C30.9878 15.59 30.6528 14.735 30.6528 13.665C30.6528 12.655 30.9828 11.815 31.6428 11.145C32.3028 10.465 33.1378 10.125 34.1478 10.125C35.3478 10.125 36.2528 10.43 36.8628 11.04L36.0528 12.405C35.5928 11.965 35.0328 11.745 34.3728 11.745C33.8728 11.745 33.4328 11.925 33.0528 12.285C32.6828 12.625 32.4978 13.085 32.4978 13.665C32.4978 14.245 32.6878 14.715 33.0678 15.075C33.4678 15.425 33.9278 15.6 34.4478 15.6C35.1178 15.6 35.6978 15.325 36.1878 14.775ZM40.1074 17.04H38.3824V6.54004H40.1074V10.905C40.6074 10.415 41.2524 10.17 42.0424 10.17C43.8924 10.17 44.8174 11.155 44.8174 13.125V17.04H43.0924V13.35C43.0924 12.85 42.9624 12.465 42.7024 12.195C42.4424 11.925 42.0724 11.79 41.5924 11.79C41.0124 11.79 40.5174 11.995 40.1074 12.405V17.04ZM54.2946 10.29H56.2596L53.6046 17.04C53.1246 18.21 52.6946 19 52.3146 19.41C51.9446 19.83 51.5046 20.04 50.9946 20.04C50.5146 20.04 50.0296 19.865 49.5396 19.515L50.0946 18.21C50.3546 18.37 50.5896 18.45 50.7996 18.45C51.2096 18.45 51.5546 18.1 51.8346 17.4L51.9846 17.04L48.8646 10.29H50.9346L52.5096 13.98C52.5296 14.03 52.6396 14.355 52.8396 14.955C52.8996 14.585 52.9796 14.255 53.0796 13.965L54.2946 10.29ZM57.6148 16.215C56.9448 15.545 56.6098 14.695 56.6098 13.665C56.6098 12.635 56.9448 11.79 57.6148 11.13C58.2848 10.46 59.1748 10.125 60.2848 10.125C61.3848 10.125 62.2698 10.46 62.9398 11.13C63.6198 11.79 63.9598 12.635 63.9598 13.665C63.9598 14.685 63.6198 15.535 62.9398 16.215C62.2598 16.875 61.3748 17.205 60.2848 17.205C59.1748 17.205 58.2848 16.875 57.6148 16.215ZM58.9798 12.285C58.6298 12.645 58.4548 13.105 58.4548 13.665C58.4548 14.225 58.6248 14.69 58.9648 15.06C59.3148 15.42 59.7548 15.6 60.2848 15.6C60.8248 15.6 61.2648 15.42 61.6048 15.06C61.9548 14.7 62.1298 14.235 62.1298 13.665C62.1298 13.105 61.9548 12.645 61.6048 12.285C61.2548 11.925 60.8148 11.745 60.2848 11.745C59.7648 11.745 59.3298 11.925 58.9798 12.285ZM69.8327 10.29H71.5577V17.04H69.8327V16.215C69.2927 16.875 68.5727 17.205 67.6727 17.205C66.9527 17.205 66.3777 16.965 65.9477 16.485C65.5177 16.005 65.3027 15.315 65.3027 14.415V10.29H67.0277V14.055C67.0277 15.085 67.4577 15.6 68.3177 15.6C68.9077 15.6 69.4127 15.325 69.8327 14.775V10.29ZM75.205 17.04H73.48V10.29H75.205V10.95C75.575 10.43 76.09 10.17 76.75 10.17C77.22 10.17 77.57 10.255 77.8 10.425L77.185 12.045C76.895 11.875 76.605 11.79 76.315 11.79C75.815 11.79 75.445 12.03 75.205 12.51V17.04Z" fill="#FFDD63"/>
<path d="M38.1555 43.04H36.4305V35.195C36.4305 34.285 36.6405 33.59 37.0605 33.11C37.4805 32.62 38.0705 32.375 38.8305 32.375C39.6805 32.375 40.3105 32.585 40.7205 33.005L40.1355 34.325C39.9155 34.105 39.5855 33.995 39.1455 33.995C38.4855 33.995 38.1555 34.44 38.1555 35.33V36.29H39.9855V37.91H38.1555V43.04ZM43.2134 43.04H41.4884V36.29H43.2134V43.04ZM41.3084 33.86C41.3084 33.56 41.4084 33.32 41.6084 33.14C41.8184 32.95 42.0784 32.855 42.3884 32.855C42.6584 32.855 42.8884 32.95 43.0784 33.14C43.2784 33.33 43.3784 33.57 43.3784 33.86C43.3784 34.18 43.2784 34.44 43.0784 34.64C42.8884 34.84 42.6584 34.94 42.3884 34.94C42.0784 34.94 41.8184 34.84 41.6084 34.64C41.4084 34.44 41.3084 34.18 41.3084 33.86ZM45.2436 40.475V34.415H46.9686V36.29H49.1436V37.91H46.9686V40.37C46.9686 41.18 47.2386 41.585 47.7786 41.585C48.1186 41.585 48.4636 41.455 48.8136 41.195L49.3386 42.53C48.7886 42.97 48.1236 43.19 47.3436 43.19C46.6136 43.19 46.0786 42.97 45.7386 42.53C45.4086 42.08 45.2436 41.395 45.2436 40.475ZM52.5239 43.04H50.7989V36.29H52.5239V36.965C53.0239 36.435 53.6689 36.17 54.4589 36.17C56.3089 36.17 57.2339 37.14 57.2339 39.08V43.04H55.5089V39.38C55.5089 38.32 55.0039 37.79 53.9939 37.79C53.4439 37.79 52.9539 38.005 52.5239 38.435V43.04ZM64.2823 41.15L64.7773 42.365C64.1073 42.925 63.2473 43.205 62.1973 43.205C61.1173 43.205 60.2373 42.88 59.5573 42.23C58.8973 41.59 58.5673 40.735 58.5673 39.665C58.5673 38.665 58.8923 37.825 59.5423 37.145C60.1923 36.465 61.0573 36.125 62.1373 36.125C63.0273 36.125 63.7823 36.42 64.4023 37.01C65.0223 37.6 65.3323 38.35 65.3323 39.26C65.3323 39.66 65.2973 39.97 65.2273 40.19H60.3523C60.4223 40.68 60.6373 41.065 60.9973 41.345C61.3673 41.625 61.8273 41.765 62.3773 41.765C63.1273 41.765 63.7623 41.56 64.2823 41.15ZM62.0623 37.565C61.0823 37.565 60.4923 38.055 60.2923 39.035H63.6073C63.6173 38.605 63.4773 38.255 63.1873 37.985C62.9073 37.705 62.5323 37.565 62.0623 37.565ZM66.4967 38.18C66.4967 37.55 66.7267 37.05 67.1867 36.68C67.6467 36.31 68.2417 36.125 68.9717 36.125C70.0717 36.125 70.9267 36.41 71.5367 36.98L70.8917 38.21C70.3417 37.78 69.7317 37.565 69.0617 37.565C68.8217 37.565 68.6217 37.625 68.4617 37.745C68.3017 37.855 68.2217 37.99 68.2217 38.15C68.2217 38.48 68.6467 38.755 69.4967 38.975C69.8067 39.045 70.0817 39.125 70.3217 39.215C70.5617 39.295 70.8067 39.415 71.0567 39.575C71.3167 39.725 71.5167 39.925 71.6567 40.175C71.7967 40.425 71.8667 40.715 71.8667 41.045C71.8667 41.705 71.6167 42.23 71.1167 42.62C70.6267 43.01 69.9667 43.205 69.1367 43.205C68.5467 43.205 67.9717 43.08 67.4117 42.83C66.8417 42.57 66.4767 42.31 66.3167 42.05L67.1567 40.925C67.3467 41.155 67.6617 41.35 68.1017 41.51C68.5517 41.68 68.9367 41.765 69.2567 41.765C69.6467 41.805 69.9217 41.68 70.0817 41.39C70.2417 41.09 70.1367 40.845 69.7667 40.655C69.6167 40.575 69.3817 40.49 69.0617 40.4C68.7517 40.31 68.4617 40.22 68.1917 40.13C67.9317 40.03 67.6617 39.905 67.3817 39.755C67.1117 39.605 66.8967 39.4 66.7367 39.14C66.5767 38.87 66.4967 38.55 66.4967 38.18ZM73.1618 38.18C73.1618 37.55 73.3918 37.05 73.8518 36.68C74.3118 36.31 74.9068 36.125 75.6368 36.125C76.7368 36.125 77.5918 36.41 78.2018 36.98L77.5568 38.21C77.0068 37.78 76.3968 37.565 75.7268 37.565C75.4868 37.565 75.2868 37.625 75.1268 37.745C74.9668 37.855 74.8868 37.99 74.8868 38.15C74.8868 38.48 75.3118 38.755 76.1618 38.975C76.4718 39.045 76.7468 39.125 76.9868 39.215C77.2268 39.295 77.4718 39.415 77.7218 39.575C77.9818 39.725 78.1818 39.925 78.3218 40.175C78.4618 40.425 78.5318 40.715 78.5318 41.045C78.5318 41.705 78.2818 42.23 77.7818 42.62C77.2918 43.01 76.6318 43.205 75.8018 43.205C75.2118 43.205 74.6368 43.08 74.0768 42.83C73.5068 42.57 73.1418 42.31 72.9818 42.05L73.8218 40.925C74.0118 41.155 74.3268 41.35 74.7668 41.51C75.2168 41.68 75.6018 41.765 75.9218 41.765C76.3118 41.805 76.5868 41.68 76.7468 41.39C76.9068 41.09 76.8018 40.845 76.4318 40.655C76.2818 40.575 76.0468 40.49 75.7268 40.4C75.4168 40.31 75.1268 40.22 74.8568 40.13C74.5968 40.03 74.3268 39.905 74.0468 39.755C73.7768 39.605 73.5618 39.4 73.4018 39.14C73.2418 38.87 73.1618 38.55 73.1618 38.18ZM82.3455 43.955C82.3455 43.425 82.5405 42.985 82.9305 42.635C83.3205 42.275 83.8555 42.02 84.5355 41.87C84.4555 41.73 84.4155 41.575 84.4155 41.405C84.4155 41.215 84.4655 41.055 84.5655 40.925C84.0655 40.725 83.6705 40.425 83.3805 40.025C83.1005 39.615 82.9605 39.16 82.9605 38.66C82.9605 37.97 83.2255 37.375 83.7555 36.875C84.2855 36.375 84.9805 36.125 85.8405 36.125C86.4905 36.125 87.0655 36.285 87.5655 36.605L89.6055 36.155L89.6655 37.535L88.5405 37.79C88.6505 38.09 88.7055 38.38 88.7055 38.66C88.7055 39.34 88.4405 39.93 87.9105 40.43C87.3905 40.91 86.7005 41.15 85.8405 41.15H85.7205C85.7005 41.23 85.6905 41.315 85.6905 41.405C85.6905 41.535 85.7205 41.65 85.7805 41.75H85.8555C86.9055 41.75 87.7505 41.935 88.3905 42.305C89.0405 42.685 89.3655 43.235 89.3655 43.955C89.3655 44.675 89.0405 45.225 88.3905 45.605C87.7505 45.975 86.9055 46.16 85.8555 46.16C84.7755 46.16 83.9205 45.97 83.2905 45.59C82.6605 45.22 82.3455 44.675 82.3455 43.955ZM83.9505 43.955C83.9505 44.215 84.1155 44.415 84.4455 44.555C84.7855 44.705 85.2555 44.78 85.8555 44.78C87.1155 44.78 87.7455 44.505 87.7455 43.955C87.7455 43.705 87.5805 43.505 87.2505 43.355C86.9205 43.205 86.4555 43.13 85.8555 43.13C85.2655 43.13 84.8005 43.205 84.4605 43.355C84.1205 43.505 83.9505 43.705 83.9505 43.955ZM85.8405 39.755C86.2105 39.755 86.5105 39.655 86.7405 39.455C86.9805 39.255 87.1005 38.99 87.1005 38.66C87.1005 38.32 86.9855 38.045 86.7555 37.835C86.5255 37.625 86.2205 37.52 85.8405 37.52C85.4605 37.52 85.1555 37.63 84.9255 37.85C84.6955 38.06 84.5805 38.33 84.5805 38.66C84.5805 38.98 84.6955 39.245 84.9255 39.455C85.1555 39.655 85.4605 39.755 85.8405 39.755ZM91.3009 42.215C90.6309 41.545 90.2959 40.695 90.2959 39.665C90.2959 38.635 90.6309 37.79 91.3009 37.13C91.9709 36.46 92.8609 36.125 93.9709 36.125C95.0709 36.125 95.9559 36.46 96.6259 37.13C97.3059 37.79 97.6459 38.635 97.6459 39.665C97.6459 40.685 97.3059 41.535 96.6259 42.215C95.9459 42.875 95.0609 43.205 93.9709 43.205C92.8609 43.205 91.9709 42.875 91.3009 42.215ZM92.6659 38.285C92.3159 38.645 92.1409 39.105 92.1409 39.665C92.1409 40.225 92.3109 40.69 92.6509 41.06C93.0009 41.42 93.4409 41.6 93.9709 41.6C94.5109 41.6 94.9509 41.42 95.2909 41.06C95.6409 40.7 95.8159 40.235 95.8159 39.665C95.8159 39.105 95.6409 38.645 95.2909 38.285C94.9409 37.925 94.5009 37.745 93.9709 37.745C93.4509 37.745 93.0159 37.925 92.6659 38.285ZM99.6637 38.03L99.2287 36.77C99.9587 36.34 100.754 36.125 101.614 36.125C102.554 36.125 103.239 36.355 103.669 36.815C104.099 37.275 104.314 37.98 104.314 38.93V43.04H102.814V42.26C102.414 42.84 101.749 43.13 100.819 43.13C100.179 43.13 99.6637 42.945 99.2737 42.575C98.8937 42.195 98.7037 41.69 98.7037 41.06C98.7037 40.36 98.9287 39.82 99.3787 39.44C99.8287 39.06 100.424 38.87 101.164 38.87C101.774 38.87 102.284 39.015 102.694 39.305C102.714 38.705 102.624 38.265 102.424 37.985C102.234 37.705 101.904 37.565 101.434 37.565C100.914 37.565 100.324 37.72 99.6637 38.03ZM101.389 41.675C101.969 41.675 102.404 41.47 102.694 41.06V40.37C102.414 40.15 102.019 40.04 101.509 40.04C101.189 40.04 100.929 40.115 100.729 40.265C100.529 40.415 100.429 40.62 100.429 40.88C100.429 41.12 100.519 41.315 100.699 41.465C100.879 41.605 101.109 41.675 101.389 41.675ZM106.082 41.18V32.54H107.807V40.475C107.807 41.205 108.002 41.57 108.392 41.57C108.612 41.57 108.847 41.48 109.097 41.3L109.457 42.62C108.987 43 108.392 43.19 107.672 43.19C106.612 43.19 106.082 42.52 106.082 41.18Z" fill="#FFDD63"/>
</svg>
