<?xml version="1.0" encoding="UTF-8" standalone="no"?><svg width="320" height="100" viewBox="0 0 320 100" fill="none" xmlns="http://www.w3.org/2000/svg">
<path d="M0 12C0 5.37258 5.37258 0 12 0H308C314.627 0 320 5.37258 320 12V36C320 42.6274 314.627 48 308 48H12C5.37259 48 0 42.6274 0 36V12Z" fill="#F7F7F7"/>
<path d="M0 63C0 56.9249 4.92487 52 11 52H309C315.075 52 320 56.9249 320 63V89C320 95.0751 315.075 100 309 100H11C4.92487 100 0 95.0751 0 89V63Z" fill="#FF284C"/>
<path d="M135.745 68.6L136.45 69.98C136.12 70.33 135.645 70.615 135.025 70.835C134.415 71.055 133.77 71.165 133.09 71.165C131.49 71.165 130.185 70.67 129.175 69.68C128.175 68.69 127.675 67.38 127.675 65.75C127.675 64.19 128.15 62.895 129.1 61.865C130.04 60.845 131.355 60.335 133.045 60.335C134.385 60.335 135.45 60.69 136.24 61.4L135.415 62.765C134.705 62.295 133.915 62.06 133.045 62.06C132.045 62.06 131.225 62.395 130.585 63.065C129.945 63.735 129.625 64.63 129.625 65.75C129.625 66.85 129.96 67.74 130.63 68.42C131.31 69.1 132.185 69.44 133.255 69.44C134.175 69.44 135.005 69.16 135.745 68.6ZM137.789 69.14V60.5H139.514V68.435C139.514 69.165 139.709 69.53 140.099 69.53C140.319 69.53 140.554 69.44 140.804 69.26L141.164 70.58C140.694 70.96 140.099 71.15 139.379 71.15C138.319 71.15 137.789 70.48 137.789 69.14ZM144.252 71H142.527V64.25H144.252V71ZM142.347 61.82C142.347 61.52 142.447 61.28 142.647 61.1C142.857 60.91 143.117 60.815 143.427 60.815C143.697 60.815 143.927 60.91 144.117 61.1C144.317 61.29 144.417 61.53 144.417 61.82C144.417 62.14 144.317 62.4 144.117 62.6C143.927 62.8 143.697 62.9 143.427 62.9C143.117 62.9 142.857 62.8 142.647 62.6C142.447 62.4 142.347 62.14 142.347 61.82ZM151.547 68.735L152.357 69.995C151.787 70.775 150.892 71.165 149.672 71.165C148.582 71.165 147.697 70.84 147.017 70.19C146.347 69.55 146.012 68.695 146.012 67.625C146.012 66.615 146.342 65.775 147.002 65.105C147.662 64.425 148.497 64.085 149.507 64.085C150.707 64.085 151.612 64.39 152.222 65L151.412 66.365C150.952 65.925 150.392 65.705 149.732 65.705C149.232 65.705 148.792 65.885 148.412 66.245C148.042 66.585 147.857 67.045 147.857 67.625C147.857 68.205 148.047 68.675 148.427 69.035C148.827 69.385 149.287 69.56 149.807 69.56C150.477 69.56 151.057 69.285 151.547 68.735ZM157.911 64.25H160.086L157.551 67.34L160.386 71H158.166L155.496 67.475L157.911 64.25ZM155.466 71H153.741V60.5H155.466V71ZM166.35 71H164.625V60.5H166.35V64.865C166.85 64.375 167.495 64.13 168.285 64.13C170.135 64.13 171.06 65.115 171.06 67.085V71H169.335V67.31C169.335 66.81 169.205 66.425 168.945 66.155C168.685 65.885 168.315 65.75 167.835 65.75C167.255 65.75 166.76 65.955 166.35 66.365V71ZM178.109 69.11L178.604 70.325C177.934 70.885 177.074 71.165 176.024 71.165C174.944 71.165 174.064 70.84 173.384 70.19C172.724 69.55 172.394 68.695 172.394 67.625C172.394 66.625 172.719 65.785 173.369 65.105C174.019 64.425 174.884 64.085 175.964 64.085C176.854 64.085 177.609 64.38 178.229 64.97C178.849 65.56 179.159 66.31 179.159 67.22C179.159 67.62 179.124 67.93 179.054 68.15H174.179C174.249 68.64 174.464 69.025 174.824 69.305C175.194 69.585 175.654 69.725 176.204 69.725C176.954 69.725 177.589 69.52 178.109 69.11ZM175.889 65.525C174.909 65.525 174.319 66.015 174.119 66.995H177.434C177.444 66.565 177.304 66.215 177.014 65.945C176.734 65.665 176.359 65.525 175.889 65.525ZM182.273 71H180.548V64.25H182.273V64.91C182.643 64.39 183.158 64.13 183.818 64.13C184.288 64.13 184.638 64.215 184.868 64.385L184.253 66.005C183.963 65.835 183.673 65.75 183.383 65.75C182.883 65.75 182.513 65.99 182.273 66.47V71ZM191.146 69.11L191.641 70.325C190.971 70.885 190.111 71.165 189.061 71.165C187.981 71.165 187.101 70.84 186.421 70.19C185.761 69.55 185.431 68.695 185.431 67.625C185.431 66.625 185.756 65.785 186.406 65.105C187.056 64.425 187.921 64.085 189.001 64.085C189.891 64.085 190.646 64.38 191.266 64.97C191.886 65.56 192.196 66.31 192.196 67.22C192.196 67.62 192.161 67.93 192.091 68.15H187.216C187.286 68.64 187.501 69.025 187.861 69.305C188.231 69.585 188.691 69.725 189.241 69.725C189.991 69.725 190.626 69.52 191.146 69.11ZM188.926 65.525C187.946 65.525 187.356 66.015 187.156 66.995H190.471C190.481 66.565 190.341 66.215 190.051 65.945C189.771 65.665 189.396 65.525 188.926 65.525Z" fill="white"/>
<path d="M79.188 83.992L78.84 82.984C79.424 82.64 80.06 82.468 80.748 82.468C81.5 82.468 82.048 82.652 82.392 83.02C82.736 83.388 82.908 83.952 82.908 84.712V88H81.708V87.376C81.388 87.84 80.856 88.072 80.112 88.072C79.6 88.072 79.188 87.924 78.876 87.628C78.572 87.324 78.42 86.92 78.42 86.416C78.42 85.856 78.6 85.424 78.96 85.12C79.32 84.816 79.796 84.664 80.388 84.664C80.876 84.664 81.284 84.78 81.612 85.012C81.628 84.532 81.556 84.18 81.396 83.956C81.244 83.732 80.98 83.62 80.604 83.62C80.188 83.62 79.716 83.744 79.188 83.992ZM80.568 86.908C81.032 86.908 81.38 86.744 81.612 86.416V85.864C81.388 85.688 81.072 85.6 80.664 85.6C80.408 85.6 80.2 85.66 80.04 85.78C79.88 85.9 79.8 86.064 79.8 86.272C79.8 86.464 79.872 86.62 80.016 86.74C80.16 86.852 80.344 86.908 80.568 86.908ZM85.7027 88H84.3227V82.6H85.7027V83.14C86.1027 82.716 86.6187 82.504 87.2507 82.504C88.7307 82.504 89.4707 83.28 89.4707 84.832V88H88.0907V85.072C88.0907 84.224 87.6867 83.8 86.8787 83.8C86.4387 83.8 86.0467 83.972 85.7027 84.316V88ZM96.0095 88H94.6295V87.436C94.2135 87.876 93.6975 88.096 93.0815 88.096C92.3215 88.096 91.7055 87.848 91.2335 87.352C90.7695 86.856 90.5375 86.192 90.5375 85.36C90.5375 84.512 90.8135 83.82 91.3655 83.284C91.9255 82.74 92.6375 82.468 93.5015 82.468C93.9575 82.468 94.3335 82.556 94.6295 82.732V79.6H96.0095V88ZM93.3695 86.812C93.8415 86.812 94.2615 86.628 94.6295 86.26V84.088C94.2855 83.872 93.9295 83.764 93.5615 83.764C93.1215 83.764 92.7535 83.904 92.4575 84.184C92.1615 84.464 92.0135 84.84 92.0135 85.312C92.0135 85.768 92.1415 86.132 92.3975 86.404C92.6535 86.676 92.9775 86.812 93.3695 86.812ZM105.22 88H103.84V87.436C103.424 87.876 102.908 88.096 102.292 88.096C101.532 88.096 100.916 87.848 100.444 87.352C99.9804 86.856 99.7484 86.192 99.7484 85.36C99.7484 84.512 100.024 83.82 100.576 83.284C101.136 82.74 101.848 82.468 102.712 82.468C103.168 82.468 103.544 82.556 103.84 82.732V79.6H105.22V88ZM102.58 86.812C103.052 86.812 103.472 86.628 103.84 86.26V84.088C103.496 83.872 103.14 83.764 102.772 83.764C102.332 83.764 101.964 83.904 101.668 84.184C101.372 84.464 101.224 84.84 101.224 85.312C101.224 85.768 101.352 86.132 101.608 86.404C101.864 86.676 102.188 86.812 102.58 86.812ZM108.336 88H106.956V82.6H108.336V88ZM106.812 80.656C106.812 80.416 106.892 80.224 107.052 80.08C107.22 79.928 107.428 79.852 107.676 79.852C107.892 79.852 108.076 79.928 108.228 80.08C108.388 80.232 108.468 80.424 108.468 80.656C108.468 80.912 108.388 81.12 108.228 81.28C108.076 81.44 107.892 81.52 107.676 81.52C107.428 81.52 107.22 81.44 107.052 81.28C106.892 81.12 106.812 80.912 106.812 80.656ZM109.901 84.112C109.901 83.608 110.085 83.208 110.453 82.912C110.821 82.616 111.297 82.468 111.881 82.468C112.761 82.468 113.445 82.696 113.933 83.152L113.417 84.136C112.977 83.792 112.489 83.62 111.953 83.62C111.761 83.62 111.601 83.668 111.473 83.764C111.345 83.852 111.281 83.96 111.281 84.088C111.281 84.352 111.621 84.572 112.301 84.748C112.549 84.804 112.769 84.868 112.961 84.94C113.153 85.004 113.349 85.1 113.549 85.228C113.757 85.348 113.917 85.508 114.029 85.708C114.141 85.908 114.197 86.14 114.197 86.404C114.197 86.932 113.997 87.352 113.597 87.664C113.205 87.976 112.677 88.132 112.013 88.132C111.541 88.132 111.081 88.032 110.633 87.832C110.177 87.624 109.885 87.416 109.757 87.208L110.429 86.308C110.581 86.492 110.833 86.648 111.185 86.776C111.545 86.912 111.853 86.98 112.109 86.98C112.421 87.012 112.641 86.912 112.769 86.68C112.897 86.44 112.813 86.244 112.517 86.092C112.397 86.028 112.209 85.96 111.953 85.888C111.705 85.816 111.473 85.744 111.257 85.672C111.049 85.592 110.833 85.492 110.609 85.372C110.393 85.252 110.221 85.088 110.093 84.88C109.965 84.664 109.901 84.408 109.901 84.112ZM119.505 86.188L120.153 87.196C119.697 87.82 118.981 88.132 118.005 88.132C117.133 88.132 116.425 87.872 115.881 87.352C115.345 86.84 115.077 86.156 115.077 85.3C115.077 84.492 115.341 83.82 115.869 83.284C116.397 82.74 117.065 82.468 117.873 82.468C118.833 82.468 119.557 82.712 120.045 83.2L119.397 84.292C119.029 83.94 118.581 83.764 118.053 83.764C117.653 83.764 117.301 83.908 116.997 84.196C116.701 84.468 116.553 84.836 116.553 85.3C116.553 85.764 116.705 86.14 117.009 86.428C117.329 86.708 117.697 86.848 118.113 86.848C118.649 86.848 119.113 86.628 119.505 86.188ZM121.435 87.34C120.899 86.804 120.631 86.124 120.631 85.3C120.631 84.476 120.899 83.8 121.435 83.272C121.971 82.736 122.683 82.468 123.571 82.468C124.451 82.468 125.159 82.736 125.695 83.272C126.239 83.8 126.511 84.476 126.511 85.3C126.511 86.116 126.239 86.796 125.695 87.34C125.151 87.868 124.443 88.132 123.571 88.132C122.683 88.132 121.971 87.868 121.435 87.34ZM122.527 84.196C122.247 84.484 122.107 84.852 122.107 85.3C122.107 85.748 122.243 86.12 122.515 86.416C122.795 86.704 123.147 86.848 123.571 86.848C124.003 86.848 124.355 86.704 124.627 86.416C124.907 86.128 125.047 85.756 125.047 85.3C125.047 84.852 124.907 84.484 124.627 84.196C124.347 83.908 123.995 83.764 123.571 83.764C123.155 83.764 122.807 83.908 122.527 84.196ZM131.071 82.6H132.523L130.195 88.024H129.175L126.691 82.6H128.335L129.331 84.916C129.499 85.292 129.635 85.7 129.739 86.14C129.851 85.684 129.983 85.268 130.135 84.892L131.071 82.6ZM137.297 86.488L137.693 87.46C137.157 87.908 136.469 88.132 135.629 88.132C134.765 88.132 134.061 87.872 133.517 87.352C132.989 86.84 132.725 86.156 132.725 85.3C132.725 84.5 132.985 83.828 133.505 83.284C134.025 82.74 134.717 82.468 135.581 82.468C136.293 82.468 136.897 82.704 137.393 83.176C137.889 83.648 138.137 84.248 138.137 84.976C138.137 85.296 138.109 85.544 138.053 85.72H134.153C134.209 86.112 134.381 86.42 134.669 86.644C134.965 86.868 135.333 86.98 135.773 86.98C136.373 86.98 136.881 86.816 137.297 86.488ZM135.521 83.62C134.737 83.62 134.265 84.012 134.105 84.796H136.757C136.765 84.452 136.653 84.172 136.421 83.956C136.197 83.732 135.897 83.62 135.521 83.62ZM140.628 88H139.248V82.6H140.628V83.128C140.924 82.712 141.336 82.504 141.864 82.504C142.24 82.504 142.52 82.572 142.704 82.708L142.212 84.004C141.98 83.868 141.748 83.8 141.516 83.8C141.116 83.8 140.82 83.992 140.628 84.376V88ZM149.67 82.6H151.242L149.118 88C148.734 88.936 148.39 89.568 148.086 89.896C147.79 90.232 147.438 90.4 147.03 90.4C146.646 90.4 146.258 90.26 145.866 89.98L146.31 88.936C146.518 89.064 146.706 89.128 146.874 89.128C147.202 89.128 147.478 88.848 147.702 88.288L147.822 88L145.326 82.6H146.982L148.242 85.552C148.258 85.592 148.346 85.852 148.506 86.332C148.554 86.036 148.618 85.772 148.698 85.54L149.67 82.6ZM152.326 87.34C151.79 86.804 151.522 86.124 151.522 85.3C151.522 84.476 151.79 83.8 152.326 83.272C152.862 82.736 153.574 82.468 154.462 82.468C155.342 82.468 156.05 82.736 156.586 83.272C157.13 83.8 157.402 84.476 157.402 85.3C157.402 86.116 157.13 86.796 156.586 87.34C156.042 87.868 155.334 88.132 154.462 88.132C153.574 88.132 152.862 87.868 152.326 87.34ZM153.418 84.196C153.138 84.484 152.998 84.852 152.998 85.3C152.998 85.748 153.134 86.12 153.406 86.416C153.686 86.704 154.038 86.848 154.462 86.848C154.894 86.848 155.246 86.704 155.518 86.416C155.798 86.128 155.938 85.756 155.938 85.3C155.938 84.852 155.798 84.484 155.518 84.196C155.238 83.908 154.886 83.764 154.462 83.764C154.046 83.764 153.698 83.908 153.418 84.196ZM162.1 82.6H163.48V88H162.1V87.34C161.668 87.868 161.092 88.132 160.372 88.132C159.796 88.132 159.336 87.94 158.992 87.556C158.648 87.172 158.476 86.62 158.476 85.9V82.6H159.856V85.612C159.856 86.436 160.2 86.848 160.888 86.848C161.36 86.848 161.764 86.628 162.1 86.188V82.6ZM166.398 88H165.018V82.6H166.398V83.128C166.694 82.712 167.106 82.504 167.634 82.504C168.01 82.504 168.29 82.572 168.474 82.708L167.982 84.004C167.75 83.868 167.518 83.8 167.286 83.8C166.886 83.8 166.59 83.992 166.398 84.376V88ZM173.183 90.4H171.803V82.6H173.183V83.116C173.359 82.924 173.599 82.768 173.903 82.648C174.207 82.528 174.523 82.468 174.851 82.468C175.595 82.468 176.187 82.724 176.627 83.236C177.075 83.756 177.299 84.416 177.299 85.216C177.299 86.056 177.035 86.752 176.507 87.304C175.979 87.856 175.291 88.132 174.443 88.132C173.899 88.132 173.479 88.044 173.183 87.868V90.4ZM174.419 83.764C173.939 83.764 173.527 83.96 173.183 84.352V86.536C173.511 86.744 173.891 86.848 174.323 86.848C174.779 86.848 175.143 86.7 175.415 86.404C175.695 86.108 175.835 85.724 175.835 85.252C175.835 84.804 175.707 84.444 175.451 84.172C175.203 83.9 174.859 83.764 174.419 83.764ZM182.731 86.488L183.127 87.46C182.591 87.908 181.903 88.132 181.063 88.132C180.199 88.132 179.495 87.872 178.951 87.352C178.423 86.84 178.159 86.156 178.159 85.3C178.159 84.5 178.419 83.828 178.939 83.284C179.459 82.74 180.151 82.468 181.015 82.468C181.727 82.468 182.331 82.704 182.827 83.176C183.323 83.648 183.571 84.248 183.571 84.976C183.571 85.296 183.543 85.544 183.487 85.72H179.587C179.643 86.112 179.815 86.42 180.103 86.644C180.399 86.868 180.767 86.98 181.207 86.98C181.807 86.98 182.315 86.816 182.731 86.488ZM180.955 83.62C180.171 83.62 179.699 84.012 179.539 84.796H182.191C182.199 84.452 182.087 84.172 181.855 83.956C181.631 83.732 181.331 83.62 180.955 83.62ZM186.062 88H184.682V82.6H186.062V83.128C186.358 82.712 186.77 82.504 187.298 82.504C187.674 82.504 187.954 82.572 188.138 82.708L187.646 84.004C187.414 83.868 187.182 83.8 186.95 83.8C186.55 83.8 186.254 83.992 186.062 84.376V88ZM190.364 88H188.984V81.724C188.984 80.996 189.152 80.44 189.488 80.056C189.824 79.664 190.296 79.468 190.904 79.468C191.584 79.468 192.088 79.636 192.416 79.972L191.948 81.028C191.772 80.852 191.508 80.764 191.156 80.764C190.628 80.764 190.364 81.12 190.364 81.832V82.6H191.828V83.896H190.364V88ZM197.004 86.488L197.4 87.46C196.864 87.908 196.176 88.132 195.336 88.132C194.472 88.132 193.768 87.872 193.224 87.352C192.696 86.84 192.432 86.156 192.432 85.3C192.432 84.5 192.692 83.828 193.212 83.284C193.732 82.74 194.424 82.468 195.288 82.468C196 82.468 196.604 82.704 197.1 83.176C197.596 83.648 197.844 84.248 197.844 84.976C197.844 85.296 197.816 85.544 197.76 85.72H193.86C193.916 86.112 194.088 86.42 194.376 86.644C194.672 86.868 195.04 86.98 195.48 86.98C196.08 86.98 196.588 86.816 197.004 86.488ZM195.228 83.62C194.444 83.62 193.972 84.012 193.812 84.796H196.464C196.472 84.452 196.36 84.172 196.128 83.956C195.904 83.732 195.604 83.62 195.228 83.62ZM203.012 86.188L203.66 87.196C203.204 87.82 202.488 88.132 201.512 88.132C200.64 88.132 199.932 87.872 199.388 87.352C198.852 86.84 198.584 86.156 198.584 85.3C198.584 84.492 198.848 83.82 199.376 83.284C199.904 82.74 200.572 82.468 201.38 82.468C202.34 82.468 203.064 82.712 203.552 83.2L202.904 84.292C202.536 83.94 202.088 83.764 201.56 83.764C201.16 83.764 200.808 83.908 200.504 84.196C200.208 84.468 200.06 84.836 200.06 85.3C200.06 85.764 200.212 86.14 200.516 86.428C200.836 86.708 201.204 86.848 201.62 86.848C202.156 86.848 202.62 86.628 203.012 86.188ZM204.648 85.948V81.1H206.028V82.6H207.768V83.896H206.028V85.864C206.028 86.512 206.244 86.836 206.676 86.836C206.948 86.836 207.224 86.732 207.504 86.524L207.924 87.592C207.484 87.944 206.952 88.12 206.328 88.12C205.744 88.12 205.316 87.944 205.044 87.592C204.78 87.232 204.648 86.684 204.648 85.948ZM211.635 87.532V79.6H213.015V82.936C213.407 82.624 213.883 82.468 214.443 82.468C215.235 82.468 215.859 82.724 216.315 83.236C216.779 83.732 217.011 84.392 217.011 85.216C217.011 86.104 216.731 86.812 216.171 87.34C215.619 87.868 214.871 88.132 213.927 88.132C213.511 88.132 213.091 88.076 212.667 87.964C212.251 87.852 211.907 87.708 211.635 87.532ZM214.119 83.764C213.679 83.764 213.311 83.936 213.015 84.28V86.572C213.311 86.756 213.639 86.848 213.999 86.848C214.455 86.848 214.823 86.712 215.103 86.44C215.391 86.16 215.535 85.784 215.535 85.312C215.535 84.824 215.403 84.444 215.139 84.172C214.875 83.9 214.535 83.764 214.119 83.764ZM218.677 87.34C218.141 86.804 217.873 86.124 217.873 85.3C217.873 84.476 218.141 83.8 218.677 83.272C219.213 82.736 219.925 82.468 220.813 82.468C221.693 82.468 222.401 82.736 222.937 83.272C223.481 83.8 223.753 84.476 223.753 85.3C223.753 86.116 223.481 86.796 222.937 87.34C222.393 87.868 221.685 88.132 220.813 88.132C219.925 88.132 219.213 87.868 218.677 87.34ZM219.769 84.196C219.489 84.484 219.349 84.852 219.349 85.3C219.349 85.748 219.485 86.12 219.757 86.416C220.037 86.704 220.389 86.848 220.813 86.848C221.245 86.848 221.597 86.704 221.869 86.416C222.149 86.128 222.289 85.756 222.289 85.3C222.289 84.852 222.149 84.484 221.869 84.196C221.589 83.908 221.237 83.764 220.813 83.764C220.397 83.764 220.049 83.908 219.769 84.196ZM230.084 88H228.704V87.436C228.288 87.876 227.772 88.096 227.156 88.096C226.396 88.096 225.78 87.848 225.308 87.352C224.844 86.856 224.612 86.192 224.612 85.36C224.612 84.512 224.888 83.82 225.44 83.284C226 82.74 226.712 82.468 227.576 82.468C228.032 82.468 228.408 82.556 228.704 82.732V79.6H230.084V88ZM227.444 86.812C227.916 86.812 228.336 86.628 228.704 86.26V84.088C228.36 83.872 228.004 83.764 227.636 83.764C227.196 83.764 226.828 83.904 226.532 84.184C226.236 84.464 226.088 84.84 226.088 85.312C226.088 85.768 226.216 86.132 226.472 86.404C226.728 86.676 227.052 86.812 227.444 86.812ZM235.252 82.6H236.824L234.7 88C234.316 88.936 233.972 89.568 233.668 89.896C233.372 90.232 233.02 90.4 232.612 90.4C232.228 90.4 231.84 90.26 231.448 89.98L231.892 88.936C232.1 89.064 232.288 89.128 232.456 89.128C232.784 89.128 233.06 88.848 233.284 88.288L233.404 88L230.908 82.6H232.564L233.824 85.552C233.84 85.592 233.928 85.852 234.088 86.332C234.136 86.036 234.2 85.772 234.28 85.54L235.252 82.6ZM239.475 85.096H238.011V79.6H239.475V85.096ZM237.819 87.1C237.819 86.868 237.907 86.664 238.083 86.488C238.267 86.304 238.499 86.212 238.779 86.212C239.019 86.212 239.223 86.304 239.391 86.488C239.567 86.664 239.655 86.868 239.655 87.1C239.655 87.364 239.567 87.592 239.391 87.784C239.223 87.968 239.019 88.06 238.779 88.06C238.499 88.06 238.267 87.968 238.083 87.784C237.907 87.592 237.819 87.364 237.819 87.1Z" fill="white"/>
<path opacity="0.5" d="M19.515 18.5H20.91L17.145 24.5V29H15.87V24.5L12.15 18.5H13.62L16.56 23.3L19.515 18.5ZM20.9735 28.16C20.3135 27.48 19.9835 26.635 19.9835 25.625C19.9835 24.605 20.3135 23.765 20.9735 23.105C21.6435 22.435 22.5135 22.1 23.5835 22.1C24.6535 22.1 25.5185 22.435 26.1785 23.105C26.8485 23.765 27.1835 24.605 27.1835 25.625C27.1835 26.645 26.8485 27.49 26.1785 28.16C25.5185 28.82 24.6535 29.15 23.5835 29.15C22.5235 29.15 21.6535 28.82 20.9735 28.16ZM21.9185 23.9C21.4785 24.34 21.2585 24.915 21.2585 25.625C21.2585 26.335 21.4735 26.91 21.9035 27.35C22.3435 27.8 22.9035 28.025 23.5835 28.025C24.2635 28.025 24.8185 27.805 25.2485 27.365C25.6885 26.915 25.9085 26.335 25.9085 25.625C25.9085 24.935 25.6885 24.36 25.2485 23.9C24.8185 23.45 24.2635 23.225 23.5835 23.225C22.9035 23.225 22.3485 23.45 21.9185 23.9ZM33.64 22.25H34.84V29H33.64V28.04C33.01 28.78 32.215 29.15 31.255 29.15C30.465 29.15 29.85 28.91 29.41 28.43C28.98 27.94 28.765 27.22 28.765 26.27V22.25H29.965V26C29.965 27.35 30.545 28.025 31.705 28.025C32.065 28.025 32.42 27.935 32.77 27.755C33.13 27.565 33.42 27.32 33.64 27.02V22.25ZM38.2155 29H37.0155V22.25H38.2155V23.045C38.6155 22.435 39.1805 22.13 39.9105 22.13C40.3805 22.13 40.7305 22.215 40.9605 22.385L40.5405 23.51C40.2505 23.34 39.9455 23.255 39.6255 23.255C39.0155 23.255 38.5455 23.575 38.2155 24.215V29ZM52.0523 29H45.9773V18.5H51.9023V19.7H47.2523V23.09H51.4523V24.29H47.2523V27.8H52.0523V29ZM64.1303 24.575V29H62.9303V24.905C62.9303 23.805 62.4453 23.255 61.4753 23.255C61.0853 23.255 60.7303 23.345 60.4103 23.525C60.1003 23.695 59.8653 23.93 59.7053 24.23C59.7153 24.28 59.7203 24.44 59.7203 24.71V29H58.5203V24.65C58.5203 24.22 58.3903 23.88 58.1303 23.63C57.8803 23.38 57.5303 23.255 57.0803 23.255C56.3303 23.255 55.7403 23.56 55.3103 24.17V29H54.1103V22.25H55.3103V23.105C55.5603 22.815 55.8853 22.58 56.2853 22.4C56.6953 22.22 57.1153 22.13 57.5453 22.13C58.0553 22.13 58.4903 22.235 58.8503 22.445C59.2103 22.655 59.4553 22.94 59.5853 23.3C59.8353 22.94 60.1703 22.655 60.5903 22.445C61.0103 22.235 61.4653 22.13 61.9553 22.13C63.4053 22.13 64.1303 22.945 64.1303 24.575ZM66.5113 23.675L66.1963 22.715C66.8663 22.305 67.6163 22.1 68.4463 22.1C69.3563 22.1 70.0163 22.325 70.4263 22.775C70.8363 23.225 71.0413 23.92 71.0413 24.86V29H69.9013V28.13C69.3713 28.78 68.6513 29.105 67.7413 29.105C67.1213 29.105 66.6213 28.92 66.2413 28.55C65.8613 28.17 65.6713 27.66 65.6713 27.02C65.6713 26.36 65.9063 25.84 66.3763 25.46C66.8463 25.07 67.4613 24.875 68.2213 24.875C68.9313 24.875 69.4913 25.02 69.9013 25.31C69.9013 24.55 69.7963 24.005 69.5863 23.675C69.3763 23.345 68.9713 23.18 68.3713 23.18C67.7613 23.18 67.1413 23.345 66.5113 23.675ZM68.1613 28.025C68.8313 28.025 69.4113 27.735 69.9013 27.155V26.3C69.4813 26 68.9763 25.85 68.3863 25.85C67.9763 25.85 67.6313 25.95 67.3513 26.15C67.0813 26.34 66.9463 26.61 66.9463 26.96C66.9463 27.29 67.0513 27.55 67.2613 27.74C67.4813 27.93 67.7813 28.025 68.1613 28.025ZM74.5807 29H73.3807V22.25H74.5807V29ZM73.2307 19.715C73.2307 19.505 73.3057 19.335 73.4557 19.205C73.6057 19.065 73.7907 18.995 74.0107 18.995C74.2207 18.995 74.3957 19.065 74.5357 19.205C74.6757 19.335 74.7457 19.505 74.7457 19.715C74.7457 19.945 74.6757 20.135 74.5357 20.285C74.3957 20.425 74.2207 20.495 74.0107 20.495C73.7907 20.495 73.6057 20.425 73.4557 20.285C73.3057 20.135 73.2307 19.945 73.2307 19.715ZM77.0644 27.2V18.5H78.2644V26.66C78.2644 27.55 78.5294 27.995 79.0594 27.995C79.3194 27.995 79.6044 27.895 79.9144 27.695L80.1844 28.61C79.7544 28.95 79.2244 29.12 78.5944 29.12C77.5744 29.12 77.0644 28.48 77.0644 27.2Z" fill="#050505"/>
</svg>
