<svg width="215" height="24" viewBox="0 0 215 24" fill="none" xmlns="http://www.w3.org/2000/svg">
<path d="M0 6C0 2.68629 2.68629 0 6 0H209C212.314 0 215 2.68629 215 6V17C215 20.3137 212.314 23 209 23H6C2.68629 23 0 20.3137 0 17V6Z" fill="#171819"/>
<path d="M9.75 13.325V17H7.35V6.5C7.92 6.5 8.55 6.495 9.24 6.485C9.93 6.475 10.49 6.47 10.92 6.47C13.51 6.47 14.805 7.59 14.805 9.83C14.805 11.27 14.215 12.28 13.035 12.86L16.095 17H13.185L10.635 13.325H9.75ZM10.8 8.72C10.79 8.72 10.745 8.725 10.665 8.735C10.585 8.735 10.46 8.74 10.29 8.75C10.12 8.75 9.94 8.75 9.75 8.75V11.075H10.62C11.71 11.075 12.255 10.67 12.255 9.86C12.255 9.1 11.77 8.72 10.8 8.72ZM23.8178 17H17.4428V6.5H23.6678V8.75H19.8428V10.595H23.2178V12.845H19.8428V14.75H23.8178V17ZM32.2957 6.5H34.7107L30.6157 17H28.7707L24.5707 6.5H27.1357L29.7757 13.43L32.2957 6.5ZM34.7104 11.75C34.7104 10.2 35.2254 8.91 36.2554 7.88C37.2954 6.84 38.6404 6.32 40.2904 6.32C41.9304 6.32 43.2654 6.815 44.2954 7.805C45.3454 8.795 45.8704 10.11 45.8704 11.75C45.8704 13.33 45.3404 14.63 44.2804 15.65C43.2304 16.67 41.9004 17.18 40.2904 17.18C38.6604 17.18 37.3204 16.685 36.2704 15.695C35.2304 14.705 34.7104 13.39 34.7104 11.75ZM37.2604 11.75C37.2604 12.64 37.5554 13.395 38.1454 14.015C38.7254 14.625 39.4404 14.93 40.2904 14.93C41.2504 14.93 41.9954 14.635 42.5254 14.045C43.0554 13.435 43.3204 12.67 43.3204 11.75C43.3204 10.8 43.0304 10.035 42.4504 9.455C41.8604 8.865 41.1404 8.57 40.2904 8.57C39.4104 8.57 38.6854 8.865 38.1154 9.455C37.5454 10.045 37.2604 10.81 37.2604 11.75ZM54.4986 17H47.8236V6.5H50.2236V14.75H54.4986V17ZM62.3125 6.5H64.7125V12.665C64.7125 14.175 64.3025 15.305 63.4825 16.055C62.6725 16.805 61.6525 17.18 60.4225 17.18C59.0225 17.18 57.9125 16.785 57.0925 15.995C56.2625 15.195 55.8475 14.05 55.8475 12.56V6.5H58.2475V12.05C58.2475 13.97 58.9725 14.93 60.4225 14.93C61.0925 14.93 61.5725 14.705 61.8625 14.255C62.1625 13.805 62.3125 13.115 62.3125 12.185V6.5ZM69.2121 8.75H66.0621V6.5H74.7621V8.75H71.6121V17H69.2121V8.75ZM78.8063 17H76.4063V6.5H78.8063V17ZM80.9115 11.75C80.9115 10.2 81.4265 8.91 82.4565 7.88C83.4965 6.84 84.8415 6.32 86.4915 6.32C88.1315 6.32 89.4665 6.815 90.4965 7.805C91.5465 8.795 92.0715 10.11 92.0715 11.75C92.0715 13.33 91.5415 14.63 90.4815 15.65C89.4315 16.67 88.1015 17.18 86.4915 17.18C84.8615 17.18 83.5215 16.685 82.4715 15.695C81.4315 14.705 80.9115 13.39 80.9115 11.75ZM83.4615 11.75C83.4615 12.64 83.7565 13.395 84.3465 14.015C84.9265 14.625 85.6415 14.93 86.4915 14.93C87.4515 14.93 88.1965 14.635 88.7265 14.045C89.2565 13.435 89.5215 12.67 89.5215 11.75C89.5215 10.8 89.2315 10.035 88.6515 9.455C88.0615 8.865 87.3415 8.57 86.4915 8.57C85.6115 8.57 84.8865 8.865 84.3165 9.455C83.7465 10.045 83.4615 10.81 83.4615 11.75ZM103.175 6.5V17H101.255L96.2748 10.7V17H94.0248V6.5H95.9448L100.925 12.83V6.5H103.175ZM106.94 17H104.525L108.89 6.5H111.035L115.4 17H112.835L111.965 14.795H107.81L106.94 17ZM111.065 12.545L109.895 9.575L108.71 12.545H111.065ZM119.145 13.325V17H116.745V6.5C117.315 6.5 117.945 6.495 118.635 6.485C119.325 6.475 119.885 6.47 120.315 6.47C122.905 6.47 124.2 7.59 124.2 9.83C124.2 11.27 123.61 12.28 122.43 12.86L125.49 17H122.58L120.03 13.325H119.145ZM120.195 8.72C120.185 8.72 120.14 8.725 120.06 8.735C119.98 8.735 119.855 8.74 119.685 8.75C119.515 8.75 119.335 8.75 119.145 8.75V11.075H120.015C121.105 11.075 121.65 10.67 121.65 9.86C121.65 9.1 121.165 8.72 120.195 8.72ZM132.248 6.5H134.843L131.123 12.725V17H128.723V12.725L125.033 6.5H127.778L130.028 10.475L132.248 6.5ZM141.601 17H139.201V6.5H141.616L144.856 10.925L147.916 6.5H150.181V17H147.781V10.31L144.856 14.405H144.511L141.601 10.355V17ZM159.257 17H152.882V6.5H159.107V8.75H155.282V10.595H158.657V12.845H155.282V14.75H159.257V17ZM163.46 8.75H160.31V6.5H169.01V8.75H165.86V17H163.46V8.75ZM179.129 17H176.729V12.77H172.904V17H170.504V6.5H172.904V10.52H176.729V6.5H179.129V17ZM181.078 11.75C181.078 10.2 181.593 8.91 182.623 7.88C183.663 6.84 185.008 6.32 186.658 6.32C188.298 6.32 189.633 6.815 190.663 7.805C191.713 8.795 192.238 10.11 192.238 11.75C192.238 13.33 191.708 14.63 190.648 15.65C189.598 16.67 188.268 17.18 186.658 17.18C185.028 17.18 183.688 16.685 182.638 15.695C181.598 14.705 181.078 13.39 181.078 11.75ZM183.628 11.75C183.628 12.64 183.923 13.395 184.513 14.015C185.093 14.625 185.808 14.93 186.658 14.93C187.618 14.93 188.363 14.635 188.893 14.045C189.423 13.435 189.688 12.67 189.688 11.75C189.688 10.8 189.398 10.035 188.818 9.455C188.228 8.865 187.508 8.57 186.658 8.57C185.778 8.57 185.053 8.865 184.483 9.455C183.913 10.045 183.628 10.81 183.628 11.75ZM194.446 17H194.191V6.5H194.401C194.851 6.5 195.351 6.495 195.901 6.485C196.111 6.485 196.341 6.485 196.591 6.485C196.851 6.475 197.051 6.47 197.191 6.47C197.331 6.46 197.436 6.455 197.506 6.455C199.476 6.455 200.951 6.945 201.931 7.925C202.911 8.905 203.401 10.15 203.401 11.66C203.401 13.21 202.876 14.495 201.826 15.515C200.786 16.525 199.306 17.03 197.386 17.03C196.996 17.03 196.561 17.025 196.081 17.015C195.601 17.005 195.056 17 194.446 17ZM197.476 8.705C197.086 8.705 196.791 8.72 196.591 8.75V14.75C196.871 14.77 197.161 14.78 197.461 14.78C198.521 14.78 199.351 14.505 199.951 13.955C200.551 13.405 200.851 12.64 200.851 11.66C200.851 10.73 200.546 10.005 199.936 9.485C199.326 8.965 198.506 8.705 197.476 8.705ZM207.528 12.95H205.128V6.5H207.528V12.95ZM204.858 15.56C204.858 15.19 205.003 14.865 205.293 14.585C205.583 14.295 205.948 14.15 206.388 14.15C206.778 14.15 207.108 14.295 207.378 14.585C207.658 14.865 207.798 15.19 207.798 15.56C207.798 15.98 207.663 16.34 207.393 16.64C207.133 16.94 206.798 17.09 206.388 17.09C205.938 17.09 205.568 16.945 205.278 16.655C204.998 16.355 204.858 15.99 204.858 15.56Z" fill="#FFDD63"/>
</svg>
