<svg width="201" height="12" viewBox="0 0 201 12" fill="none" xmlns="http://www.w3.org/2000/svg">
<path d="M2.75 7.325V11H0.35V0.499999C0.92 0.499999 1.55 0.494999 2.24 0.484999C2.93 0.475 3.49 0.47 3.92 0.47C6.51 0.47 7.805 1.59 7.805 3.83C7.805 5.27 7.215 6.28 6.035 6.86L9.095 11H6.185L3.635 7.325H2.75ZM3.8 2.72C3.79 2.72 3.745 2.725 3.665 2.735C3.585 2.735 3.46 2.74 3.29 2.75C3.12 2.75 2.94 2.75 2.75 2.75V5.075H3.62C4.71 5.075 5.255 4.67 5.255 3.86C5.255 3.1 4.77 2.72 3.8 2.72ZM16.8178 11H10.4428V0.499999H16.6678V2.75H12.8428V4.595H16.2178V6.845H12.8428V8.75H16.8178V11ZM25.2957 0.499999H27.7107L23.6157 11H21.7707L17.5707 0.499999H20.1357L22.7757 7.43L25.2957 0.499999ZM27.7104 5.75C27.7104 4.2 28.2254 2.91 29.2554 1.88C30.2954 0.84 31.6404 0.32 33.2904 0.32C34.9304 0.32 36.2654 0.815 37.2954 1.805C38.3454 2.795 38.8704 4.11 38.8704 5.75C38.8704 7.33 38.3404 8.63 37.2804 9.65C36.2304 10.67 34.9004 11.18 33.2904 11.18C31.6604 11.18 30.3204 10.685 29.2704 9.695C28.2304 8.705 27.7104 7.39 27.7104 5.75ZM30.2604 5.75C30.2604 6.64 30.5554 7.395 31.1454 8.015C31.7254 8.625 32.4404 8.93 33.2904 8.93C34.2504 8.93 34.9954 8.635 35.5254 8.045C36.0554 7.435 36.3204 6.67 36.3204 5.75C36.3204 4.8 36.0304 4.035 35.4504 3.455C34.8604 2.865 34.1404 2.57 33.2904 2.57C32.4104 2.57 31.6854 2.865 31.1154 3.455C30.5454 4.045 30.2604 4.81 30.2604 5.75ZM47.4986 11H40.8236V0.499999H43.2236V8.75H47.4986V11ZM55.3125 0.499999H57.7125V6.665C57.7125 8.175 57.3025 9.305 56.4825 10.055C55.6725 10.805 54.6525 11.18 53.4225 11.18C52.0225 11.18 50.9125 10.785 50.0925 9.995C49.2625 9.195 48.8475 8.05 48.8475 6.56V0.499999H51.2475V6.05C51.2475 7.97 51.9725 8.93 53.4225 8.93C54.0925 8.93 54.5725 8.705 54.8625 8.255C55.1625 7.805 55.3125 7.115 55.3125 6.185V0.499999ZM62.2121 2.75H59.0621V0.499999H67.7621V2.75H64.6121V11H62.2121V2.75ZM71.8063 11H69.4063V0.499999H71.8063V11ZM73.9115 5.75C73.9115 4.2 74.4265 2.91 75.4565 1.88C76.4965 0.84 77.8415 0.32 79.4915 0.32C81.1315 0.32 82.4665 0.815 83.4965 1.805C84.5465 2.795 85.0715 4.11 85.0715 5.75C85.0715 7.33 84.5415 8.63 83.4815 9.65C82.4315 10.67 81.1015 11.18 79.4915 11.18C77.8615 11.18 76.5215 10.685 75.4715 9.695C74.4315 8.705 73.9115 7.39 73.9115 5.75ZM76.4615 5.75C76.4615 6.64 76.7565 7.395 77.3465 8.015C77.9265 8.625 78.6415 8.93 79.4915 8.93C80.4515 8.93 81.1965 8.635 81.7265 8.045C82.2565 7.435 82.5215 6.67 82.5215 5.75C82.5215 4.8 82.2315 4.035 81.6515 3.455C81.0615 2.865 80.3415 2.57 79.4915 2.57C78.6115 2.57 77.8865 2.865 77.3165 3.455C76.7465 4.045 76.4615 4.81 76.4615 5.75ZM96.1748 0.499999V11H94.2548L89.2748 4.7V11H87.0248V0.499999H88.9448L93.9248 6.83V0.499999H96.1748ZM99.9404 11H97.5254L101.89 0.499999H104.035L108.4 11H105.835L104.965 8.795H100.81L99.9404 11ZM104.065 6.545L102.895 3.575L101.71 6.545H104.065ZM112.145 7.325V11H109.745V0.499999C110.315 0.499999 110.945 0.494999 111.635 0.484999C112.325 0.475 112.885 0.47 113.315 0.47C115.905 0.47 117.2 1.59 117.2 3.83C117.2 5.27 116.61 6.28 115.43 6.86L118.49 11H115.58L113.03 7.325H112.145ZM113.195 2.72C113.185 2.72 113.14 2.725 113.06 2.735C112.98 2.735 112.855 2.74 112.685 2.75C112.515 2.75 112.335 2.75 112.145 2.75V5.075H113.015C114.105 5.075 114.65 4.67 114.65 3.86C114.65 3.1 114.165 2.72 113.195 2.72ZM125.248 0.499999H127.843L124.123 6.725V11H121.723V6.725L118.033 0.499999H120.778L123.028 4.475L125.248 0.499999ZM134.601 11H132.201V0.499999H134.616L137.856 4.925L140.916 0.499999H143.181V11H140.781V4.31L137.856 8.405H137.511L134.601 4.355V11ZM152.257 11H145.882V0.499999H152.107V2.75H148.282V4.595H151.657V6.845H148.282V8.75H152.257V11ZM156.46 2.75H153.31V0.499999H162.01V2.75H158.86V11H156.46V2.75ZM172.129 11H169.729V6.77H165.904V11H163.504V0.499999H165.904V4.52H169.729V0.499999H172.129V11ZM174.078 5.75C174.078 4.2 174.593 2.91 175.623 1.88C176.663 0.84 178.008 0.32 179.658 0.32C181.298 0.32 182.633 0.815 183.663 1.805C184.713 2.795 185.238 4.11 185.238 5.75C185.238 7.33 184.708 8.63 183.648 9.65C182.598 10.67 181.268 11.18 179.658 11.18C178.028 11.18 176.688 10.685 175.638 9.695C174.598 8.705 174.078 7.39 174.078 5.75ZM176.628 5.75C176.628 6.64 176.923 7.395 177.513 8.015C178.093 8.625 178.808 8.93 179.658 8.93C180.618 8.93 181.363 8.635 181.893 8.045C182.423 7.435 182.688 6.67 182.688 5.75C182.688 4.8 182.398 4.035 181.818 3.455C181.228 2.865 180.508 2.57 179.658 2.57C178.778 2.57 178.053 2.865 177.483 3.455C176.913 4.045 176.628 4.81 176.628 5.75ZM187.446 11H187.191V0.499999H187.401C187.851 0.499999 188.351 0.494999 188.901 0.484999C189.111 0.484999 189.341 0.484999 189.591 0.484999C189.851 0.475 190.051 0.47 190.191 0.47C190.331 0.46 190.436 0.455 190.506 0.455C192.476 0.455 193.951 0.945 194.931 1.925C195.911 2.905 196.401 4.15 196.401 5.66C196.401 7.21 195.876 8.495 194.826 9.515C193.786 10.525 192.306 11.03 190.386 11.03C189.996 11.03 189.561 11.025 189.081 11.015C188.601 11.005 188.056 11 187.446 11ZM190.476 2.705C190.086 2.705 189.791 2.72 189.591 2.75V8.75C189.871 8.77 190.161 8.78 190.461 8.78C191.521 8.78 192.351 8.505 192.951 7.955C193.551 7.405 193.851 6.64 193.851 5.66C193.851 4.73 193.546 4.005 192.936 3.485C192.326 2.965 191.506 2.705 190.476 2.705ZM200.528 6.95H198.128V0.499999H200.528V6.95ZM197.858 9.56C197.858 9.19 198.003 8.865 198.293 8.585C198.583 8.295 198.948 8.15 199.388 8.15C199.778 8.15 200.108 8.295 200.378 8.585C200.658 8.865 200.798 9.19 200.798 9.56C200.798 9.98 200.663 10.34 200.393 10.64C200.133 10.94 199.798 11.09 199.388 11.09C198.938 11.09 198.568 10.945 198.278 10.655C197.998 10.355 197.858 9.99 197.858 9.56Z" fill="#FFDD63"/>
</svg>
