<?xml version="1.0" encoding="UTF-8" standalone="no"?><svg width="49" height="41" viewBox="0 0 49 41" fill="none" xmlns="http://www.w3.org/2000/svg">
<path fill-rule="evenodd" clip-rule="evenodd" d="M10.3847 40.4654C10.1276 40.9541 9.52295 41.1419 9.03416 40.8848L1.06905 36.6947C0.580276 36.4376 0.392482 35.8329 0.649608 35.3441C0.906734 34.8553 1.51141 34.6676 2.00019 34.9247L7.91077 38.034C4.87957 25.9004 8.1148 15.0488 15.2838 8.2305C22.9024 0.984656 34.8025 -1.55365 47.8648 3.56884C48.379 3.77047 48.6323 4.35073 48.4307 4.8649C48.2291 5.37906 47.6488 5.63242 47.1346 5.43078C34.697 0.553273 23.6448 3.03869 16.6621 9.67972C10.1273 15.8948 7.0161 25.883 9.78971 37.3007L12.8048 31.5691C13.062 31.0803 13.6666 30.8926 14.1554 31.1497C14.6442 31.4068 14.832 32.0115 14.5749 32.5003L10.3847 40.4654Z" fill="url(#paint0_linear_16730_5770)"/>
<defs>
<linearGradient id="paint0_linear_16730_5770" x1="8.99973" y1="39.9998" x2="47.7412" y2="5.32831" gradientUnits="userSpaceOnUse">
<stop offset="0.536458" stop-color="#050505"/>
<stop offset="1" stop-color="#050505" stop-opacity="0"/>
</linearGradient>
</defs>
</svg>
